<svg width="35" height="35" viewBox="0 0 35 35" fill="none" xmlns="http://www.w3.org/2000/svg">
<path d="M17.39 24.74C16.45 24.74 15.65 24.5367 14.99 24.13C14.3367 23.7233 13.8033 23.17 13.39 22.47C12.9833 21.7633 12.6867 20.9533 12.5 20.04C12.3133 19.1267 12.22 18.1667 12.22 17.16C12.22 16.1533 12.3133 15.1933 12.5 14.28C12.6867 13.36 12.9833 12.5433 13.39 11.83C13.8033 11.1167 14.3367 10.5567 14.99 10.15C15.65 9.73667 16.45 9.53 17.39 9.53C18.33 9.53 19.1267 9.73667 19.78 10.15C20.44 10.5567 20.9733 11.1167 21.38 11.83C21.7933 12.5433 22.0933 13.36 22.28 14.28C22.4667 15.1933 22.56 16.1533 22.56 17.16C22.56 18.1667 22.4667 19.1267 22.28 20.04C22.0933 20.9533 21.7933 21.7633 21.38 22.47C20.9733 23.17 20.44 23.7233 19.78 24.13C19.1267 24.5367 18.33 24.74 17.39 24.74ZM17.39 22.33C17.8367 22.33 18.21 22.16 18.51 21.82C18.8167 21.4733 19.0467 20.92 19.2 20.16C19.3533 19.4 19.43 18.4 19.43 17.16C19.43 15.9133 19.3533 14.9133 19.2 14.16C19.0467 13.4 18.8167 12.8467 18.51 12.5C18.21 12.1533 17.8367 11.98 17.39 11.98C16.95 11.98 16.5767 12.1533 16.27 12.5C15.9633 12.8467 15.7333 13.4 15.58 14.16C15.4267 14.9133 15.35 15.9133 15.35 17.16C15.35 18.4067 15.4267 19.41 15.58 20.17C15.7333 20.9233 15.9633 21.4733 16.27 21.82C16.5767 22.16 16.95 22.33 17.39 22.33Z" fill="#FCFCFC"/>
<rect x="0.5" y="0.5" width="34" height="34" rx="7.5" stroke="url(#paint0_linear_864_1401)"/>
<defs>
<linearGradient id="paint0_linear_864_1401" x1="0" y1="0" x2="42.1919" y2="19.1757" gradientUnits="userSpaceOnUse">
<stop stop-color="#FFAC33"/>
<stop offset="0.28125" stop-color="#9F03FF"/>
<stop offset="0.28125" stop-color="#9F03FF"/>
<stop offset="0.28125" stop-color="#9F03FF"/>
<stop offset="0.739583" stop-color="#9F03FF"/>
<stop offset="0.958333" stop-color="#00DFBA"/>
</linearGradient>
</defs>
</svg>
