<svg width="35" height="35" viewBox="0 0 35 35" fill="none" xmlns="http://www.w3.org/2000/svg">
<path d="M11.9 24.5V21.96C11.96 21.8133 12.1367 21.5967 12.43 21.31C12.7233 21.0167 13.08 20.6867 13.5 20.32C13.92 19.9533 14.36 19.58 14.82 19.2C15.2867 18.8133 15.7167 18.4567 16.11 18.13C16.5767 17.7433 17.03 17.3433 17.47 16.93C17.91 16.51 18.2733 16.0667 18.56 15.6C18.8533 15.1267 19 14.63 19 14.11C19 13.4567 18.8433 12.9333 18.53 12.54C18.2233 12.1467 17.7333 11.95 17.06 11.95C16.52 11.95 16.09 12.07 15.77 12.31C15.4567 12.5433 15.2333 12.8733 15.1 13.3C14.9667 13.72 14.9 14.2133 14.9 14.78H11.8C11.8 13.7 12.0033 12.7667 12.41 11.98C12.8233 11.1933 13.4233 10.59 14.21 10.17C15.0033 9.74333 15.97 9.53 17.11 9.53C18.2167 9.53 19.14 9.73333 19.88 10.14C20.6267 10.5467 21.1867 11.0967 21.56 11.79C21.9333 12.4833 22.12 13.2667 22.12 14.14C22.12 14.7267 22.0067 15.2767 21.78 15.79C21.56 16.2967 21.27 16.7667 20.91 17.2C20.5567 17.6333 20.1767 18.03 19.77 18.39C19.3633 18.7433 18.98 19.0633 18.62 19.35C18.0133 19.83 17.4867 20.2533 17.04 20.62C16.5933 20.9867 16.2367 21.2967 15.97 21.55C15.71 21.8033 15.55 21.9967 15.49 22.13H22.03V24.5H11.9Z" fill="#FCFCFC"/>
<rect x="0.5" y="0.5" width="34" height="34" rx="7.5" stroke="url(#paint0_linear_864_1400)"/>
<defs>
<linearGradient id="paint0_linear_864_1400" x1="0" y1="0" x2="42.1919" y2="19.1757" gradientUnits="userSpaceOnUse">
<stop stop-color="#FFAC33"/>
<stop offset="0.28125" stop-color="#9F03FF"/>
<stop offset="0.28125" stop-color="#9F03FF"/>
<stop offset="0.28125" stop-color="#9F03FF"/>
<stop offset="0.739583" stop-color="#9F03FF"/>
<stop offset="0.958333" stop-color="#00DFBA"/>
</linearGradient>
</defs>
</svg>
