<svg width="20" height="20" viewBox="0 0 20 20" fill="none" xmlns="http://www.w3.org/2000/svg">
<path d="M10.4204 0.763184C5.17451 0.763184 0.92041 5.01728 0.92041 10.2632C0.92041 15.5091 5.17451 19.7632 10.4204 19.7632C15.6663 19.7632 19.9204 15.5091 19.9204 10.2632C19.9204 5.01728 15.6682 0.763184 10.4204 0.763184ZM5.60771 10.5824L5.64761 10.5178L8.11951 6.65128C8.15561 6.59618 8.24111 6.60188 8.26771 6.66268C8.68001 7.58798 9.03721 8.73938 8.87001 9.45568C8.79971 9.75018 8.60401 10.1492 8.38361 10.5178C8.35511 10.571 8.32471 10.6242 8.29051 10.6755C8.27531 10.6983 8.24871 10.7116 8.22021 10.7116H5.67991C5.61151 10.7116 5.57161 10.6375 5.60771 10.5824ZM16.622 11.9124C16.622 11.9485 16.6011 11.9789 16.5707 11.9922C16.3788 12.0739 15.7233 12.376 15.4516 12.7541C14.7562 13.7212 14.2261 15.1044 13.0386 15.1044H8.08721C6.33161 15.1044 4.91041 13.6775 4.91041 11.9162V11.8592C4.91041 11.8136 4.94841 11.7756 4.99591 11.7756H7.75471C7.80981 11.7756 7.84971 11.825 7.84591 11.8801C7.82501 12.0587 7.85921 12.243 7.94471 12.4102C8.10811 12.7427 8.44821 12.9498 8.81491 12.9498H10.181V11.8839H8.83011C8.76171 11.8839 8.71991 11.8041 8.75981 11.7471C8.77501 11.7243 8.79021 11.7015 8.80921 11.6749C8.93651 11.4925 9.11891 11.2113 9.30131 10.8902C9.42481 10.6736 9.54451 10.4418 9.64141 10.21C9.66041 10.1682 9.67561 10.1245 9.69271 10.0827C9.71931 10.0086 9.74591 9.93828 9.76491 9.86988C9.78391 9.81098 9.80101 9.75018 9.81621 9.69318C9.86181 9.49558 9.88081 9.28658 9.88081 9.06998C9.88081 8.98448 9.87701 8.89518 9.86941 8.81158C9.86561 8.71848 9.85421 8.62538 9.84281 8.53228C9.83521 8.45058 9.82001 8.36888 9.80481 8.28528C9.78391 8.16178 9.75731 8.03828 9.72691 7.91478L9.71551 7.86728C9.69271 7.78178 9.67181 7.70198 9.64521 7.61648C9.56731 7.35048 9.47991 7.09018 9.38491 6.84698C9.35071 6.75008 9.31271 6.65698 9.27281 6.56578C9.21581 6.42518 9.15691 6.29788 9.10371 6.17818C9.07521 6.12308 9.05241 6.07368 9.02961 6.02238C9.00301 5.96538 8.97641 5.90838 8.94791 5.85328C8.92891 5.81148 8.90611 5.77158 8.89091 5.73358L8.72371 5.42578C8.70091 5.38398 8.73891 5.33268 8.78451 5.34598L9.82951 5.62908H9.83331C9.83521 5.62908 9.83521 5.62908 9.83711 5.62908L9.97391 5.66898L10.1259 5.71078L10.181 5.72598V5.10658C10.181 4.80638 10.4204 4.56318 10.7187 4.56318C10.8669 4.56318 11.0018 4.62398 11.0968 4.72278C11.1937 4.82158 11.2545 4.95648 11.2545 5.10658V6.02808L11.3666 6.05848C11.3742 6.06228 11.3837 6.06608 11.3913 6.07178C11.4179 6.09078 11.4578 6.12118 11.5072 6.15918C11.5471 6.18958 11.5889 6.22758 11.6383 6.26748C11.739 6.34918 11.8606 6.45368 11.9917 6.57338C12.0259 6.60378 12.0601 6.63418 12.0924 6.66648C12.2615 6.82418 12.4515 7.00848 12.6339 7.21368C12.6852 7.27258 12.7346 7.32958 12.7859 7.39228C12.8353 7.45498 12.8904 7.51578 12.936 7.57658C12.9987 7.65828 13.0633 7.74378 13.1222 7.83308C13.1488 7.87488 13.1811 7.91858 13.2058 7.96038C13.2818 8.07248 13.3464 8.18838 13.4091 8.30428C13.4357 8.35748 13.4623 8.41638 13.4851 8.47338C13.5554 8.62918 13.6105 8.78688 13.6447 8.94648C13.6561 8.98068 13.6637 9.01678 13.6675 9.05098V9.05858C13.6789 9.10418 13.6827 9.15358 13.6865 9.20488C13.7017 9.36638 13.6941 9.52978 13.6599 9.69318C13.6447 9.76158 13.6257 9.82618 13.6029 9.89648C13.5782 9.96298 13.5554 10.0314 13.525 10.0979C13.4661 10.2328 13.3977 10.3696 13.316 10.495C13.2894 10.5425 13.2571 10.5919 13.2267 10.6394C13.1925 10.6888 13.1564 10.7363 13.126 10.7819C13.0823 10.8408 13.0367 10.9016 12.9892 10.9567C12.9474 11.0137 12.9056 11.0707 12.8581 11.122C12.7935 11.1999 12.7308 11.2721 12.6643 11.3424C12.6263 11.388 12.5845 11.4355 12.5408 11.4773C12.499 11.5248 12.4553 11.5666 12.4173 11.6046C12.3508 11.6711 12.2976 11.7205 12.252 11.7642L12.1437 11.8611C12.1285 11.8763 12.1076 11.8839 12.0867 11.8839H11.2545V12.9498H12.3014C12.5351 12.9498 12.7574 12.8681 12.9379 12.7142C12.9987 12.661 13.2666 12.4292 13.5839 12.0796C13.5953 12.0663 13.6086 12.0587 13.6238 12.0549L16.5137 11.2189C16.5688 11.2037 16.622 11.2436 16.622 11.3006V11.9124Z" fill="white"/>
</svg>
