<svg width="18" height="21" viewBox="0 0 18 21" fill="none" xmlns="http://www.w3.org/2000/svg">
<path d="M17.5614 20.0701L15.4044 18.1687L14.1885 17.0385L12.903 15.8448L13.4312 17.7029H2.05667C0.917552 17.6988 -0.00290831 16.7727 6.90558e-06 15.6336V2.06722C-0.0017411 0.928922 0.918379 0.00407649 2.05667 0H15.5047C16.643 0.00407649 17.5631 0.928922 17.5614 2.06722V20.0701ZM12.7815 11.0998C12.3361 11.6972 11.6949 12.119 10.9699 12.2914C11.2678 12.6716 11.627 13.1016 11.6301 13.1058C12.8418 13.1314 13.9892 12.5615 14.7009 11.5805C14.6644 9.54674 14.1705 7.54732 13.2558 5.73055C12.4505 5.09862 11.4702 4.72982 10.4481 4.67423H10.4365L10.296 4.83479C11.209 5.08002 12.0604 5.514 12.7952 6.10871C11.8602 5.59471 10.8341 5.26751 9.77416 5.14535C9.10047 5.07052 8.42021 5.07726 7.74814 5.16542C7.70062 5.16636 7.65327 5.1713 7.60659 5.1802H7.57701C6.78936 5.27089 6.02085 5.48477 5.29958 5.814C4.93832 5.97984 4.71649 6.10026 4.70699 6.10449C4.69748 6.10871 4.70699 6.10449 4.70699 6.09709C5.48643 5.48405 6.38566 5.04109 7.34673 4.79676L7.2411 4.67634H7.23476C6.21266 4.73207 5.23243 5.10085 4.42706 5.73266C3.50902 7.5482 3.01493 9.54839 2.98201 11.5826C3.68482 12.5701 4.83375 13.1422 6.04535 13.1079C6.04535 13.1079 6.42351 12.6473 6.71822 12.2745C6.01154 12.0969 5.38886 11.6785 4.95733 11.0914C4.96473 11.0967 5.0693 11.1674 5.23832 11.2604C5.24967 11.2737 5.26371 11.2845 5.27951 11.2921C5.2929 11.3013 5.30703 11.3095 5.32176 11.3164C5.33847 11.324 5.35439 11.3332 5.3693 11.3438C5.60498 11.4738 5.84961 11.5867 6.10133 11.6819C6.57992 11.8714 7.07497 12.0164 7.58018 12.115C8.02251 12.1984 8.47159 12.2408 8.92171 12.2417C9.34375 12.2417 9.76489 12.2028 10.1798 12.1255C10.6795 12.0378 11.1675 11.8932 11.6343 11.6945C12.0376 11.5394 12.4224 11.34 12.7815 11.0998ZM10.6287 10.6488C10.1692 10.6889 9.73211 10.4427 9.52816 10.0289C9.32421 9.61513 9.39519 9.11858 9.7069 8.77851C10.0186 8.43843 10.5071 8.32458 10.9371 8.49181C11.367 8.65904 11.6502 9.07305 11.6502 9.53436C11.6735 10.1237 11.2168 10.6214 10.6277 10.6488H10.6287ZM6.9654 10.6488C6.38743 10.5984 5.94389 10.1145 5.94389 9.53436C5.94389 8.9542 6.38743 8.47032 6.9654 8.41994C7.23164 8.42075 7.4862 8.52936 7.67103 8.721C7.88075 8.93868 7.99483 9.23111 7.98792 9.53331C8.01237 10.1237 7.55461 10.6225 6.96435 10.6488H6.9654Z" fill="white"/>
</svg>
