<svg width="11" height="11" viewBox="0 0 11 11" fill="none" xmlns="http://www.w3.org/2000/svg">
<path d="M10.5338 1.11884C10.4483 0.913101 10.2848 0.749604 10.0791 0.664162C9.97785 0.621017 9.86914 0.598132 9.75911 0.596802H1.33907C1.11576 0.596802 0.901594 0.685513 0.743687 0.843419C0.585781 1.00133 0.49707 1.21549 0.49707 1.43881C0.49707 1.66212 0.585781 1.87629 0.743687 2.03419C0.901594 2.1921 1.11576 2.28081 1.33907 2.28081H7.72988L0.741251 9.26102C0.662331 9.3393 0.599691 9.43242 0.556944 9.53503C0.514196 9.63764 0.492188 9.74769 0.492188 9.85884C0.492188 9.97 0.514196 10.0801 0.556944 10.1827C0.599691 10.2853 0.662331 10.3784 0.741251 10.4567C0.819526 10.5356 0.912653 10.5982 1.01526 10.641C1.11786 10.6837 1.22792 10.7057 1.33907 10.7057C1.45023 10.7057 1.56028 10.6837 1.66289 10.641C1.76549 10.5982 1.85862 10.5356 1.9369 10.4567L8.91711 3.46803V9.85884C8.91711 10.0822 9.00582 10.2963 9.16373 10.4542C9.32163 10.6121 9.5358 10.7008 9.75911 10.7008C9.98243 10.7008 10.1966 10.6121 10.3545 10.4542C10.5124 10.2963 10.6011 10.0822 10.6011 9.85884V1.43881C10.5998 1.32877 10.5769 1.22007 10.5338 1.11884Z" fill="white"/>
</svg>
