<svg width="21" height="16" viewBox="0 0 21 16" fill="none" xmlns="http://www.w3.org/2000/svg">
<path d="M20.6876 2.35097C19.957 2.6593 19.1721 2.86763 18.347 2.9618C19.1984 2.47663 19.8353 1.71302 20.139 0.813466C19.3391 1.26596 18.4637 1.58446 17.5508 1.75513C16.9368 1.13085 16.1237 0.717071 15.2375 0.578028C14.3514 0.438984 13.4418 0.582459 12.6501 0.986177C11.8583 1.38989 11.2287 2.03127 10.8589 2.81072C10.4891 3.59017 10.3999 4.46409 10.605 5.2968C8.98424 5.2193 7.39868 4.81809 5.95126 4.11922C4.50383 3.42035 3.22687 2.43943 2.20326 1.24013C1.85326 1.81513 1.65201 2.4818 1.65201 3.1918C1.65162 3.83096 1.81689 4.46033 2.13315 5.02408C2.44942 5.58782 2.9069 6.0685 3.46501 6.42347C2.81775 6.40385 2.18477 6.23729 1.61876 5.93763V5.98763C1.6187 6.88408 1.94429 7.75295 2.5403 8.4468C3.1363 9.14065 3.96601 9.61674 4.88864 9.7943C4.2882 9.94906 3.65868 9.97186 3.04764 9.86097C3.30795 10.6323 3.81501 11.3068 4.49783 11.7901C5.18066 12.2733 6.00506 12.5411 6.85564 12.556C5.41174 13.6355 3.62854 14.221 1.79289 14.2185C1.46772 14.2185 1.14283 14.2005 0.819885 14.1643C2.68318 15.3053 4.85218 15.9108 7.06739 15.9085C14.5661 15.9085 18.6655 9.99347 18.6655 4.86347C18.6655 4.6968 18.6611 4.52847 18.6533 4.3618C19.4506 3.81261 20.1389 3.13255 20.6859 2.35347L20.6876 2.35097Z" fill="#F8F8F8"/>
</svg>
