<svg width="111" height="16" viewBox="0 0 111 16" fill="none" xmlns="http://www.w3.org/2000/svg">
<path d="M14.1983 0.654719C14.3991 0.253436 14.8094 0 15.2581 0H16.1648C17.0458 0 17.6189 0.927185 17.2248 1.71522L10.4413 15.2823C10.2405 15.6838 9.83015 15.9375 9.38124 15.9375H8.88244C8.43755 15.9375 8.03014 15.6883 7.82743 15.2923L0.88305 1.7252C0.479384 0.936562 1.05212 0 1.93806 0H2.8539C3.2988 0 3.70623 0.249162 3.90893 0.645202L8.04663 8.7295C8.48916 9.59413 9.72677 9.58856 10.1615 8.71999L14.1983 0.654719Z" fill="white"/>
<path d="M19.1538 1.18519C19.1538 0.530626 19.6844 0 20.339 0H32.3056C32.9602 0 33.4908 0.530626 33.4908 1.18519V2.00453C33.4908 2.65909 32.9602 3.18971 32.3056 3.18971H20.339C19.6844 3.18971 19.1538 2.65909 19.1538 2.00453V1.18519ZM23.5287 9.55803C22.8741 9.55803 22.3435 10.0887 22.3435 10.7432V11.5626C22.3435 12.2171 22.8741 12.7477 23.5287 12.7477H32.3056C32.9602 12.7477 33.4908 13.2784 33.4908 13.9329V14.7523C33.4908 15.4068 32.9602 15.9375 32.3056 15.9375H20.339C19.6844 15.9375 19.1538 15.4068 19.1538 14.7523V7.56461C19.1538 6.91005 19.6844 6.37943 20.339 6.37943H30.7163C31.3709 6.37943 31.9015 6.91005 31.9015 7.56461V8.37284C31.9015 9.0274 31.3709 9.55803 30.7163 9.55803H23.5287Z" fill="white"/>
<path d="M40.0373 3.18971C39.3828 3.18971 38.8522 3.72034 38.8522 4.3749V14.7523C38.8522 15.4068 38.3215 15.9375 37.667 15.9375H36.8476C36.1931 15.9375 35.6624 15.4068 35.6624 14.7523V1.18519C35.6624 0.530626 36.1931 0 36.8476 0H44.4314C45.9725 0 47.2877 0.544585 48.3768 1.63376C49.466 2.72293 50.0106 4.03808 50.0106 5.57922C50.0106 6.80176 49.6624 7.88722 48.9659 8.83562C48.6509 9.26458 48.2926 9.63671 47.8912 9.95199C47.2047 10.4911 46.9581 11.5624 47.5753 12.1796L49.3099 13.9142C50.0565 14.6608 49.5278 15.9375 48.4719 15.9375H47.3118C46.9975 15.9375 46.696 15.8126 46.4738 15.5903L41.5888 10.7054C41.3665 10.4831 41.2417 10.1816 41.2417 9.86731V9.15391C41.2417 8.49935 41.7723 7.96873 42.4268 7.96873H44.4314C45.0908 7.96873 45.6539 7.73533 46.1207 7.26854C46.5875 6.80176 46.8209 6.23865 46.8209 5.57922C46.8209 4.91979 46.5875 4.35668 46.1207 3.88989C45.6539 3.42311 45.0908 3.18971 44.4314 3.18971H40.0373Z" fill="white"/>
<path d="M52.1933 1.18519C52.1933 0.530626 52.724 0 53.3785 0H54.1979C54.8524 0 55.383 0.530626 55.383 1.18519V14.7523C55.383 15.4068 54.8524 15.9375 54.1979 15.9375H53.3785C52.724 15.9375 52.1933 15.4068 52.1933 14.7523V1.18519Z" fill="white"/>
<path d="M64.3302 15.9375C63.6756 15.9375 63.145 15.4068 63.145 14.7523V4.3749C63.145 3.72034 62.6144 3.18971 61.9598 3.18971H58.751C58.0964 3.18971 57.5658 2.65909 57.5658 2.00453V1.18519C57.5658 0.530626 58.0964 0 58.751 0H70.7287C71.3833 0 71.9139 0.530626 71.9139 1.18519V2.00453C71.9139 2.65909 71.3833 3.18971 70.7287 3.18971H67.5199C66.8653 3.18971 66.3347 3.72034 66.3347 4.3749V14.7523C66.3347 15.4068 65.8041 15.9375 65.1495 15.9375H64.3302Z" fill="white"/>
<path d="M80.3054 15.9375C79.6508 15.9375 79.1202 15.4068 79.1202 14.7523V4.3749C79.1202 3.72034 78.5896 3.18971 77.935 3.18971H74.7262C74.0716 3.18971 73.541 2.65909 73.541 2.00453V1.18519C73.541 0.530626 74.0716 0 74.7262 0H86.7039C87.3585 0 87.8891 0.530626 87.8891 1.18519V2.00453C87.8891 2.65909 87.3585 3.18971 86.7039 3.18971H83.4951C82.8405 3.18971 82.3099 3.72034 82.3099 4.3749V14.7523C82.3099 15.4068 81.7793 15.9375 81.1247 15.9375H80.3054Z" fill="white"/>
<path d="M89.634 1.84285C89.1086 1.05525 89.6732 0 90.62 0H91.6053C92.0013 0 92.3711 0.197751 92.591 0.527066L96.0586 5.72056C96.5383 6.43897 97.6007 6.41938 98.0536 5.68376L101.205 0.563859C101.421 0.213442 101.803 0 102.215 0H103.176C104.104 0 104.672 1.01697 104.186 1.80661L95.8315 15.3737C95.6158 15.7241 95.2337 15.9375 94.8223 15.9375H93.8596C92.9325 15.9375 92.3644 14.9209 92.8502 14.1312L94.8419 10.894C95.0844 10.4997 95.0753 10.0003 94.8184 9.61526L89.634 1.84285Z" fill="white"/>
<path d="M111 12C111 14.2091 109.209 16 107 16C104.791 16 103 14.2091 103 12C103 9.79086 104.791 8 107 8C109.209 8 111 9.79086 111 12ZM105.085 12C105.085 13.0578 105.942 13.9153 107 13.9153C108.058 13.9153 108.915 13.0578 108.915 12C108.915 10.9422 108.058 10.0847 107 10.0847C105.942 10.0847 105.085 10.9422 105.085 12Z" fill="url(#paint0_linear_535_1243)"/>
<defs>
<linearGradient id="paint0_linear_535_1243" x1="109" y1="7" x2="105" y2="15" gradientUnits="userSpaceOnUse">
<stop offset="0.338542" stop-color="#FFAC33"/>
<stop offset="0.546875" stop-color="#FFFCF3"/>
<stop offset="0.677083" stop-color="#FFD057"/>
<stop offset="0.901042" stop-color="#FFAC33"/>
</linearGradient>
</defs>
</svg>
