<svg width="274" height="481" viewBox="0 0 274 481" fill="none" xmlns="http://www.w3.org/2000/svg">
<path d="M0 396.808L9.52295 404.399L0 411.3V457.537V460.684C0 471.904 9.09562 481 20.3156 481V481H252.041V481C263.962 481 273.626 471.336 273.626 459.415V457.537V411.3L264.103 404.399L273.626 396.808V23.4634V22.2202C273.626 9.94833 263.678 0 251.406 0V0H22.2202V0C9.94834 0 0 9.94833 0 22.2202V22.7733V396.808Z" fill="#111032"/>
<path d="M0 396.808L9.52295 404.399L0 411.3V457.537V460.684C0 471.904 9.09562 481 20.3156 481V481H252.041V481C263.962 481 273.626 471.336 273.626 459.415V457.537V411.3L264.103 404.399L273.626 396.808V23.4634V22.2202C273.626 9.94833 263.678 0 251.406 0V0H22.2202V0C9.94834 0 0 9.94833 0 22.2202V22.7733V396.808Z" fill="black"/>
<path d="M24.1247 404.399H29.8385M33.6476 404.399H39.9963M43.8055 404.399H48.2495H49.5192M64.1211 404.399H69.8349M74.2789 404.399H77.4532H80.6276M15.8715 404.399H20.3155M53.9633 404.399H56.8202H59.6771M83.8019 404.399H86.9762H90.1505M93.3248 404.399H96.4991H99.6735M104.118 404.399H109.831M114.275 404.399H117.45H120.624M123.798 404.399H126.973H130.147M133.321 404.399H136.496H139.67M144.114 404.399H149.828M154.272 404.399H157.446H160.62M163.795 404.399H166.969H170.143M173.318 404.399H176.492H179.666M184.745 404.399H190.459M194.903 404.399H198.077H201.252M204.426 404.399H207.6H210.775M213.949 404.399H217.123H220.298M224.107 404.399H229.821M234.265 404.399H237.439H239.343M243.788 404.399H246.962H248.866M253.31 404.399H256.485H257.755" stroke="#930FFC" stroke-opacity="0.7" stroke-width="1.5"/>
<rect x="19.4996" y="423.5" width="34" height="34" rx="7.5" stroke="url(#paint0_linear_44_995)"/>
<rect x="59.4996" y="423.5" width="34" height="34" rx="7.5" stroke="url(#paint1_linear_44_995)"/>
<rect x="99.4996" y="423.5" width="34" height="34" rx="7.5" stroke="url(#paint2_linear_44_995)"/>
<path d="M150.288 446L148.56 434.2H151.112L152.368 445.464L152.008 445.448L154.008 434.2H157.104L159.096 445.448L158.736 445.464L159.992 434.2H162.544L160.816 446H157.008L155.432 435.92H155.688L154.096 446H150.288ZM163.981 446V437.504H166.437V446H163.981ZM165.205 436.12C164.821 436.12 164.485 436.019 164.197 435.816C163.914 435.613 163.773 435.328 163.773 434.96C163.773 434.587 163.914 434.299 164.197 434.096C164.485 433.893 164.821 433.792 165.205 433.792C165.594 433.792 165.93 433.893 166.213 434.096C166.501 434.299 166.645 434.587 166.645 434.96C166.645 435.333 166.501 435.621 166.213 435.824C165.93 436.021 165.594 436.12 165.205 436.12ZM174.249 446V442.392C174.249 442.189 174.249 442.005 174.249 441.84C174.249 441.675 174.249 441.525 174.249 441.392C174.249 441.04 174.203 440.72 174.113 440.432C174.022 440.139 173.859 439.904 173.625 439.728C173.39 439.552 173.051 439.464 172.609 439.464C172.225 439.464 171.891 439.552 171.609 439.728C171.331 439.904 171.118 440.149 170.969 440.464C170.819 440.779 170.745 441.141 170.745 441.552L170.057 441.056C170.057 440.32 170.217 439.675 170.537 439.12C170.857 438.565 171.289 438.131 171.833 437.816C172.382 437.501 172.99 437.344 173.657 437.344C174.355 437.344 174.929 437.485 175.377 437.768C175.83 438.045 176.166 438.435 176.385 438.936C176.609 439.432 176.721 440.013 176.721 440.68C176.721 440.952 176.721 441.256 176.721 441.592C176.721 441.928 176.721 442.272 176.721 442.624V446H174.249ZM168.265 446V437.504H170.745V446H168.265ZM184.561 446V442.392C184.561 442.189 184.561 442.005 184.561 441.84C184.561 441.675 184.561 441.525 184.561 441.392C184.561 441.04 184.516 440.72 184.425 440.432C184.334 440.139 184.172 439.904 183.937 439.728C183.702 439.552 183.364 439.464 182.921 439.464C182.537 439.464 182.204 439.552 181.921 439.728C181.644 439.904 181.43 440.149 181.281 440.464C181.132 440.779 181.057 441.141 181.057 441.552L180.369 441.056C180.369 440.32 180.529 439.675 180.849 439.12C181.169 438.565 181.601 438.131 182.145 437.816C182.694 437.501 183.302 437.344 183.969 437.344C184.668 437.344 185.241 437.485 185.689 437.768C186.142 438.045 186.478 438.435 186.697 438.936C186.921 439.432 187.033 440.013 187.033 440.68C187.033 440.952 187.033 441.256 187.033 441.592C187.033 441.928 187.033 442.272 187.033 442.624V446H184.561ZM178.577 446V437.504H181.057V446H178.577ZM188.794 446V437.504H191.25V446H188.794ZM190.018 436.12C189.634 436.12 189.298 436.019 189.01 435.816C188.727 435.613 188.586 435.328 188.586 434.96C188.586 434.587 188.727 434.299 189.01 434.096C189.298 433.893 189.634 433.792 190.018 433.792C190.407 433.792 190.743 433.893 191.026 434.096C191.314 434.299 191.458 434.587 191.458 434.96C191.458 435.333 191.314 435.621 191.026 435.824C190.743 436.021 190.407 436.12 190.018 436.12ZM199.061 446V442.392C199.061 442.189 199.061 442.005 199.061 441.84C199.061 441.675 199.061 441.525 199.061 441.392C199.061 441.04 199.016 440.72 198.925 440.432C198.834 440.139 198.672 439.904 198.437 439.728C198.202 439.552 197.864 439.464 197.421 439.464C197.037 439.464 196.704 439.552 196.421 439.728C196.144 439.904 195.93 440.149 195.781 440.464C195.632 440.779 195.557 441.141 195.557 441.552L194.869 441.056C194.869 440.32 195.029 439.675 195.349 439.12C195.669 438.565 196.101 438.131 196.645 437.816C197.194 437.501 197.802 437.344 198.469 437.344C199.168 437.344 199.741 437.485 200.189 437.768C200.642 438.045 200.978 438.435 201.197 438.936C201.421 439.432 201.533 440.013 201.533 440.68C201.533 440.952 201.533 441.256 201.533 441.592C201.533 441.928 201.533 442.272 201.533 442.624V446H199.061ZM193.077 446V437.504H195.557V446H193.077ZM209.254 444.992C209.776 445.045 210.232 445.147 210.622 445.296C211.016 445.44 211.323 445.656 211.542 445.944C211.76 446.227 211.87 446.605 211.87 447.08C211.87 447.629 211.688 448.096 211.326 448.48C210.968 448.869 210.443 449.165 209.75 449.368C209.056 449.571 208.216 449.672 207.23 449.672C205.774 449.672 204.646 449.461 203.846 449.04C203.051 448.624 202.654 448.067 202.654 447.368C202.654 447.171 202.675 446.992 202.718 446.832C202.766 446.677 202.824 446.544 202.894 446.432L205.15 446.76C205.123 446.797 205.094 446.853 205.062 446.928C205.035 447.008 205.022 447.107 205.022 447.224C205.022 447.507 205.232 447.717 205.654 447.856C206.08 447.995 206.63 448.064 207.302 448.064C207.776 448.064 208.182 448.029 208.518 447.96C208.859 447.896 209.118 447.8 209.294 447.672C209.475 447.544 209.566 447.397 209.566 447.232C209.566 446.992 209.448 446.835 209.214 446.76C208.984 446.685 208.718 446.632 208.414 446.6L205.198 446.272C204.606 446.213 204.115 446.043 203.726 445.76C203.336 445.477 203.142 445.096 203.142 444.616C203.142 444.317 203.224 444.045 203.39 443.8C203.555 443.549 203.744 443.344 203.958 443.184C204.171 443.019 204.35 442.915 204.494 442.872L205.758 443.512C205.656 443.528 205.536 443.592 205.398 443.704C205.264 443.816 205.198 443.947 205.198 444.096C205.198 444.245 205.272 444.373 205.422 444.48C205.576 444.587 205.856 444.659 206.262 444.696L209.254 444.992ZM210.094 437.504H212.278L211.39 440.768C211.224 441.387 210.979 441.939 210.654 442.424C210.328 442.904 209.894 443.283 209.35 443.56C208.811 443.837 208.131 443.976 207.31 443.976C206.446 443.976 205.696 443.843 205.062 443.576C204.432 443.309 203.947 442.933 203.606 442.448C203.264 441.957 203.094 441.379 203.094 440.712C203.094 440.045 203.267 439.459 203.614 438.952C203.966 438.445 204.443 438.051 205.046 437.768C205.654 437.485 206.342 437.344 207.11 437.344C207.691 437.344 208.222 437.44 208.702 437.632C209.187 437.819 209.576 438.067 209.87 438.376C210.168 438.685 210.323 439.027 210.334 439.4L209.878 439.52L210.094 437.504ZM207.294 442.16C207.646 442.16 207.955 442.104 208.222 441.992C208.488 441.875 208.696 441.707 208.846 441.488C208.995 441.264 209.07 440.995 209.07 440.68C209.07 440.371 208.995 440.107 208.846 439.888C208.696 439.669 208.488 439.501 208.222 439.384C207.955 439.267 207.646 439.208 207.294 439.208C206.958 439.208 206.654 439.269 206.382 439.392C206.115 439.509 205.904 439.68 205.75 439.904C205.595 440.123 205.518 440.389 205.518 440.704C205.518 441.013 205.592 441.277 205.742 441.496C205.891 441.709 206.099 441.875 206.366 441.992C206.632 442.104 206.942 442.16 207.294 442.16ZM219.915 446H217.491V434.2H221.347L225.299 445.104L224.883 445.208V434.2H227.299V446H223.419L219.467 435.128L219.915 435.024V446ZM230.617 436.12L231.737 434.936V439.904L230.969 439.28H235.793V441.2H230.969L231.737 440.528V446H229.257V434.2H236.505V436.12H230.617ZM246.058 436.12H242.162L243.154 434.936V446H240.682V434.936L241.706 436.12H237.786V434.2H246.058V436.12ZM249.972 446.192C249.466 446.192 248.978 446.133 248.508 446.016C248.039 445.899 247.618 445.725 247.244 445.496C246.876 445.267 246.583 444.981 246.364 444.64C246.151 444.293 246.044 443.891 246.044 443.432C246.044 443.411 246.044 443.387 246.044 443.36C246.044 443.328 246.044 443.304 246.044 443.288H248.508C248.508 443.304 248.508 443.323 248.508 443.344C248.508 443.36 248.508 443.379 248.508 443.4C248.508 443.709 248.644 443.936 248.916 444.08C249.194 444.224 249.567 444.296 250.036 444.296C250.282 444.296 250.516 444.272 250.74 444.224C250.97 444.171 251.156 444.088 251.3 443.976C251.45 443.859 251.524 443.712 251.524 443.536C251.524 443.253 251.367 443.053 251.052 442.936C250.743 442.819 250.244 442.701 249.556 442.584C249.167 442.52 248.772 442.429 248.372 442.312C247.972 442.195 247.604 442.04 247.268 441.848C246.932 441.651 246.663 441.403 246.46 441.104C246.258 440.8 246.156 440.432 246.156 440C246.156 439.424 246.33 438.939 246.676 438.544C247.028 438.149 247.495 437.851 248.076 437.648C248.658 437.445 249.298 437.344 249.996 437.344C250.663 437.344 251.284 437.456 251.86 437.68C252.436 437.899 252.903 438.216 253.26 438.632C253.618 439.043 253.796 439.539 253.796 440.12C253.796 440.131 253.796 440.147 253.796 440.168C253.796 440.189 253.796 440.211 253.796 440.232H251.356C251.356 440.211 251.356 440.192 251.356 440.176C251.356 440.16 251.356 440.147 251.356 440.136C251.356 439.923 251.287 439.749 251.148 439.616C251.015 439.483 250.844 439.384 250.636 439.32C250.428 439.251 250.212 439.216 249.988 439.216C249.786 439.216 249.575 439.24 249.356 439.288C249.143 439.331 248.962 439.405 248.812 439.512C248.663 439.613 248.588 439.757 248.588 439.944C248.588 440.125 248.668 440.275 248.828 440.392C248.988 440.504 249.212 440.597 249.5 440.672C249.788 440.741 250.122 440.808 250.5 440.872C250.858 440.931 251.234 441.013 251.628 441.12C252.028 441.221 252.402 441.368 252.748 441.56C253.1 441.747 253.383 441.995 253.596 442.304C253.815 442.608 253.924 442.995 253.924 443.464C253.924 443.949 253.812 444.365 253.588 444.712C253.364 445.059 253.06 445.341 252.676 445.56C252.298 445.773 251.874 445.931 251.404 446.032C250.94 446.139 250.463 446.192 249.972 446.192Z" fill="#FCFCFC"/>
<defs>
<linearGradient id="paint0_linear_44_995" x1="18.9996" y1="423" x2="61.1916" y2="442.176" gradientUnits="userSpaceOnUse">
<stop stop-color="#FFAC33"/>
<stop offset="0.28125" stop-color="#9F03FF"/>
<stop offset="0.28125" stop-color="#9F03FF"/>
<stop offset="0.28125" stop-color="#9F03FF"/>
<stop offset="0.739583" stop-color="#9F03FF"/>
<stop offset="0.958333" stop-color="#00DFBA"/>
</linearGradient>
<linearGradient id="paint1_linear_44_995" x1="58.9996" y1="423" x2="101.192" y2="442.176" gradientUnits="userSpaceOnUse">
<stop stop-color="#FFAC33"/>
<stop offset="0.28125" stop-color="#9F03FF"/>
<stop offset="0.28125" stop-color="#9F03FF"/>
<stop offset="0.28125" stop-color="#9F03FF"/>
<stop offset="0.739583" stop-color="#9F03FF"/>
<stop offset="0.958333" stop-color="#00DFBA"/>
</linearGradient>
<linearGradient id="paint2_linear_44_995" x1="98.9996" y1="423" x2="141.192" y2="442.176" gradientUnits="userSpaceOnUse">
<stop stop-color="#FFAC33"/>
<stop offset="0.28125" stop-color="#9F03FF"/>
<stop offset="0.28125" stop-color="#9F03FF"/>
<stop offset="0.28125" stop-color="#9F03FF"/>
<stop offset="0.739583" stop-color="#9F03FF"/>
<stop offset="0.958333" stop-color="#00DFBA"/>
</linearGradient>
</defs>
</svg>
