<?xml version="1.0" encoding="UTF-8"?>
<svg xmlns="http://www.w3.org/2000/svg" xmlns:xlink="http://www.w3.org/1999/xlink" width="px" height="px" viewBox="0 0 15 15" version="1.1">
<g id="surface1">
<path style=" stroke:none;fill-rule:nonzero;fill:rgb(0%,0%,0%);fill-opacity:1;" d="M 13.125 6.875 C 12.960938 6.875 12.800781 6.941406 12.683594 7.058594 C 12.566406 7.175781 12.5 7.335938 12.5 7.5 C 12.507812 8.671875 12.105469 9.808594 11.367188 10.714844 C 10.625 11.621094 9.59375 12.242188 8.445312 12.46875 C 7.296875 12.695312 6.105469 12.515625 5.074219 11.957031 C 4.042969 11.398438 3.242188 10.5 2.804688 9.414062 C 2.363281 8.328125 2.320312 7.125 2.671875 6.007812 C 3.027344 4.894531 3.761719 3.9375 4.746094 3.300781 C 5.726562 2.667969 6.902344 2.398438 8.066406 2.535156 C 9.226562 2.675781 10.304688 3.214844 11.113281 4.0625 L 9.613281 4.0625 C 9.445312 4.0625 9.289062 4.128906 9.171875 4.246094 C 9.054688 4.363281 8.988281 4.523438 8.988281 4.6875 C 8.988281 4.851562 9.054688 5.011719 9.171875 5.128906 C 9.289062 5.246094 9.445312 5.3125 9.613281 5.3125 L 12.445312 5.3125 C 12.609375 5.3125 12.769531 5.246094 12.886719 5.128906 C 13.003906 5.011719 13.070312 4.851562 13.070312 4.6875 L 13.070312 1.875 C 13.070312 1.710938 13.003906 1.550781 12.886719 1.433594 C 12.769531 1.316406 12.609375 1.25 12.445312 1.25 C 12.277344 1.25 12.117188 1.316406 12 1.433594 C 11.882812 1.550781 11.820312 1.710938 11.820312 1.875 L 11.820312 2.980469 C 10.777344 1.984375 9.425781 1.382812 7.988281 1.269531 C 6.554688 1.15625 5.125 1.542969 3.941406 2.363281 C 2.757812 3.183594 1.894531 4.386719 1.496094 5.769531 C 1.09375 7.152344 1.1875 8.632812 1.753906 9.957031 C 2.320312 11.28125 3.324219 12.367188 4.601562 13.035156 C 5.875 13.703125 7.34375 13.910156 8.753906 13.621094 C 10.164062 13.332031 11.429688 12.566406 12.34375 11.449219 C 13.253906 10.335938 13.75 8.941406 13.75 7.5 C 13.75 7.335938 13.683594 7.175781 13.566406 7.058594 C 13.449219 6.941406 13.289062 6.875 13.125 6.875 Z M 13.125 6.875 "/>
</g>
</svg>
