<svg width="20" height="20" viewBox="0 0 20 20" fill="none" xmlns="http://www.w3.org/2000/svg">
<path d="M17.5 9.16667C17.279 9.16667 17.067 9.25447 16.9107 9.41075C16.7545 9.56703 16.6667 9.77899 16.6667 10C16.6766 11.5609 16.1419 13.0763 15.1547 14.2854C14.1675 15.4944 12.7896 16.3214 11.2583 16.6238C9.72699 16.9263 8.13815 16.6853 6.76542 15.9423C5.39269 15.1994 4.322 14.001 3.73777 12.5535C3.15353 11.1061 3.09233 9.50027 3.56468 8.01257C4.03704 6.52487 5.01339 5.24845 6.32558 4.40315C7.63778 3.55786 9.20366 3.1966 10.7535 3.3816C12.3034 3.5666 13.7403 4.28627 14.8167 5.41667H12.8167C12.5957 5.41667 12.3837 5.50447 12.2274 5.66075C12.0711 5.81703 11.9833 6.02899 11.9833 6.25C11.9833 6.47102 12.0711 6.68298 12.2274 6.83926C12.3837 6.99554 12.5957 7.08334 12.8167 7.08334H16.5917C16.8127 7.08334 17.0246 6.99554 17.1809 6.83926C17.3372 6.68298 17.425 6.47102 17.425 6.25V2.5C17.425 2.27899 17.3372 2.06703 17.1809 1.91075C17.0246 1.75447 16.8127 1.66667 16.5917 1.66667C16.3707 1.66667 16.1587 1.75447 16.0024 1.91075C15.8461 2.06703 15.7583 2.27899 15.7583 2.5V3.975C14.3706 2.64839 12.5673 1.84163 10.6533 1.69111C8.7394 1.54059 6.83219 2.05554 5.2541 3.14891C3.67601 4.24229 2.52384 5.84701 1.99236 7.69183C1.46087 9.53665 1.58267 11.5084 2.33717 13.2738C3.09167 15.0392 4.43259 16.4899 6.13325 17.3807C7.83391 18.2715 9.79 18.5478 11.6709 18.1629C13.5517 17.778 15.242 16.7554 16.4559 15.2681C17.6699 13.7807 18.3331 11.9199 18.3333 10C18.3333 9.77899 18.2455 9.56703 18.0893 9.41075C17.933 9.25447 17.721 9.16667 17.5 9.16667Z" fill="black"/>
</svg>
