<svg width="104" height="30" viewBox="0 0 104 30" fill="none" xmlns="http://www.w3.org/2000/svg">
<g filter="url(#filter0_dd_20_1005)">
<rect width="104" height="30" rx="8" fill="url(#paint0_linear_20_1005)"/>
<path d="M17.976 20.192C17.1227 20.192 16.3707 20.056 15.72 19.784C15.0747 19.512 14.568 19.1067 14.2 18.568C13.8373 18.024 13.656 17.3493 13.656 16.544C13.656 16.4587 13.656 16.3813 13.656 16.312C13.656 16.2373 13.656 16.1573 13.656 16.072H16.144C16.144 16.152 16.144 16.224 16.144 16.288C16.144 16.3467 16.144 16.416 16.144 16.496C16.144 17.0453 16.2987 17.4667 16.608 17.76C16.9173 18.0533 17.376 18.2 17.984 18.2C18.5973 18.2 19.0693 18.104 19.4 17.912C19.7307 17.7147 19.896 17.392 19.896 16.944C19.896 16.6293 19.7707 16.352 19.52 16.112C19.2747 15.872 18.9387 15.6587 18.512 15.472C18.0907 15.28 17.608 15.1013 17.064 14.936C16.472 14.7493 15.9227 14.504 15.416 14.2C14.9093 13.896 14.5013 13.5093 14.192 13.04C13.888 12.5707 13.736 11.992 13.736 11.304C13.736 10.6107 13.92 10.0213 14.288 9.536C14.656 9.04533 15.1573 8.672 15.792 8.416C16.4267 8.15467 17.144 8.024 17.944 8.024C18.7813 8.024 19.52 8.15467 20.16 8.416C20.8053 8.672 21.3093 9.05867 21.672 9.576C22.04 10.088 22.224 10.728 22.224 11.496C22.224 11.5813 22.224 11.6613 22.224 11.736C22.224 11.8053 22.224 11.8853 22.224 11.976H19.744C19.744 11.9173 19.744 11.856 19.744 11.792C19.744 11.728 19.744 11.6667 19.744 11.608C19.744 11.0907 19.6 10.6933 19.312 10.416C19.0293 10.1387 18.584 10 17.976 10C17.3893 10 16.9333 10.1067 16.608 10.32C16.288 10.5333 16.128 10.8613 16.128 11.304C16.128 11.624 16.2427 11.896 16.472 12.12C16.7067 12.344 17.0267 12.544 17.432 12.72C17.8373 12.896 18.2987 13.072 18.816 13.248C19.52 13.4933 20.1333 13.7653 20.656 14.064C21.184 14.3573 21.592 14.728 21.88 15.176C22.168 15.6187 22.312 16.184 22.312 16.872C22.312 17.576 22.1307 18.176 21.768 18.672C21.4053 19.168 20.896 19.5467 20.24 19.808C19.5893 20.064 18.8347 20.192 17.976 20.192ZM28.9368 20.192C28.2008 20.192 27.5128 20.0587 26.8728 19.792C26.2328 19.5253 25.6701 19.1333 25.1848 18.616C24.6994 18.0987 24.3181 17.4613 24.0408 16.704C23.7634 15.9413 23.6248 15.0693 23.6248 14.088C23.6248 13.1013 23.7608 12.232 24.0328 11.48C24.3101 10.7227 24.6914 10.088 25.1768 9.576C25.6621 9.064 26.2248 8.67733 26.8648 8.416C27.5048 8.15467 28.1954 8.024 28.9368 8.024C29.6728 8.024 30.3608 8.15467 31.0008 8.416C31.6461 8.67733 32.2114 9.064 32.6968 9.576C33.1821 10.088 33.5608 10.7227 33.8328 11.48C34.1048 12.232 34.2408 13.1013 34.2408 14.088C34.2408 15.0693 34.1021 15.9413 33.8248 16.704C33.5528 17.4613 33.1714 18.0987 32.6808 18.616C32.1954 19.1333 31.6301 19.5253 30.9848 19.792C30.3448 20.0587 29.6621 20.192 28.9368 20.192ZM28.9368 18.2C29.4328 18.2 29.8914 18.064 30.3128 17.792C30.7394 17.52 31.0808 17.0827 31.3368 16.48C31.5928 15.872 31.7208 15.0747 31.7208 14.088C31.7208 13.096 31.5901 12.3013 31.3288 11.704C31.0728 11.1067 30.7341 10.6773 30.3128 10.416C29.8914 10.1493 29.4328 10.016 28.9368 10.016C28.4408 10.016 27.9794 10.1493 27.5528 10.416C27.1314 10.6773 26.7928 11.1067 26.5368 11.704C26.2808 12.3013 26.1528 13.096 26.1528 14.088C26.1528 15.08 26.2808 15.8773 26.5368 16.48C26.7928 17.0827 27.1314 17.52 27.5528 17.792C27.9794 18.064 28.4408 18.2 28.9368 18.2ZM35.8823 20V8.2H38.3703V19.256L37.2503 17.976H42.7623V20H35.8823ZM44.3198 20V8.2H48.1358C48.9251 8.2 49.6424 8.344 50.2878 8.632C50.9384 8.91467 51.4958 9.31733 51.9598 9.84C52.4291 10.3573 52.7891 10.976 53.0398 11.696C53.2904 12.416 53.4158 13.2107 53.4158 14.08C53.4158 14.9493 53.2904 15.7467 53.0398 16.472C52.7891 17.1973 52.4291 17.824 51.9598 18.352C51.4958 18.8747 50.9384 19.28 50.2878 19.568C49.6424 19.856 48.9251 20 48.1358 20H44.3198ZM46.8158 19.264L45.6957 18.08H47.8158C48.3918 18.08 48.9118 17.92 49.3758 17.6C49.8451 17.2747 50.2158 16.8133 50.4878 16.216C50.7598 15.6133 50.8958 14.9013 50.8958 14.08C50.8958 13.2533 50.7598 12.5467 50.4878 11.96C50.2158 11.368 49.8451 10.9147 49.3758 10.6C48.9118 10.28 48.3918 10.12 47.8158 10.12H45.6957L46.8158 8.936V19.264ZM64.0461 20.192C63.3101 20.192 62.6221 20.0587 61.9821 19.792C61.3421 19.5253 60.7795 19.1333 60.2941 18.616C59.8088 18.0987 59.4275 17.4613 59.1501 16.704C58.8728 15.9413 58.7341 15.0693 58.7341 14.088C58.7341 13.1013 58.8701 12.232 59.1421 11.48C59.4195 10.7227 59.8008 10.088 60.2861 9.576C60.7715 9.064 61.3341 8.67733 61.9741 8.416C62.6141 8.15467 63.3048 8.024 64.0461 8.024C64.7821 8.024 65.4701 8.15467 66.1101 8.416C66.7555 8.67733 67.3208 9.064 67.8061 9.576C68.2915 10.088 68.6701 10.7227 68.9421 11.48C69.2141 12.232 69.3501 13.1013 69.3501 14.088C69.3501 15.0693 69.2115 15.9413 68.9341 16.704C68.6621 17.4613 68.2808 18.0987 67.7901 18.616C67.3048 19.1333 66.7395 19.5253 66.0941 19.792C65.4541 20.0587 64.7715 20.192 64.0461 20.192ZM64.0461 18.2C64.5421 18.2 65.0008 18.064 65.4221 17.792C65.8488 17.52 66.1901 17.0827 66.4461 16.48C66.7021 15.872 66.8301 15.0747 66.8301 14.088C66.8301 13.096 66.6995 12.3013 66.4381 11.704C66.1821 11.1067 65.8435 10.6773 65.4221 10.416C65.0008 10.1493 64.5421 10.016 64.0461 10.016C63.5501 10.016 63.0888 10.1493 62.6621 10.416C62.2408 10.6773 61.9021 11.1067 61.6461 11.704C61.3901 12.3013 61.2621 13.096 61.2621 14.088C61.2621 15.08 61.3901 15.8773 61.6461 16.48C61.9021 17.0827 62.2408 17.52 62.6621 17.792C63.0888 18.064 63.5501 18.2 64.0461 18.2ZM79.8396 15.736C79.8396 17.2293 79.445 18.3467 78.6556 19.088C77.8663 19.824 76.7863 20.192 75.4156 20.192C74.0396 20.192 72.957 19.824 72.1676 19.088C71.3836 18.3467 70.9916 17.2293 70.9916 15.736C70.9916 15.5333 70.9916 15.3173 70.9916 15.088C70.9916 14.8587 70.9916 14.6187 70.9916 14.368V8.2H73.4796V14.72C73.4796 14.9227 73.4796 15.112 73.4796 15.288C73.4796 15.464 73.4796 15.6267 73.4796 15.776C73.4796 16.608 73.6316 17.2213 73.9356 17.616C74.2396 18.0053 74.733 18.2 75.4156 18.2C76.093 18.2 76.5863 18.0053 76.8956 17.616C77.205 17.2213 77.3596 16.608 77.3596 15.776V8.2H79.8396V15.736ZM89.6361 10.12H85.7401L86.7321 8.936V20H84.2601V8.936L85.2841 10.12H81.3641V8.2H89.6361V10.12Z" fill="#222222"/>
</g>
<defs>
<filter id="filter0_dd_20_1005" x="-106" y="-25" width="316" height="242" filterUnits="userSpaceOnUse" color-interpolation-filters="sRGB">
<feFlood flood-opacity="0" result="BackgroundImageFix"/>
<feColorMatrix in="SourceAlpha" type="matrix" values="0 0 0 0 0 0 0 0 0 0 0 0 0 0 0 0 0 0 127 0" result="hardAlpha"/>
<feOffset dy="10.1425"/>
<feGaussianBlur stdDeviation="6.63642"/>
<feColorMatrix type="matrix" values="0 0 0 0 0 0 0 0 0 0 0 0 0 0 0 0 0 0 0.0290085 0"/>
<feBlend mode="normal" in2="BackgroundImageFix" result="effect1_dropShadow_20_1005"/>
<feColorMatrix in="SourceAlpha" type="matrix" values="0 0 0 0 0 0 0 0 0 0 0 0 0 0 0 0 0 0 127 0" result="hardAlpha"/>
<feOffset dy="81"/>
<feGaussianBlur stdDeviation="53"/>
<feColorMatrix type="matrix" values="0 0 0 0 0 0 0 0 0 0 0 0 0 0 0 0 0 0 0.07 0"/>
<feBlend mode="normal" in2="effect1_dropShadow_20_1005" result="effect2_dropShadow_20_1005"/>
<feBlend mode="normal" in="SourceGraphic" in2="effect2_dropShadow_20_1005" result="shape"/>
</filter>
<linearGradient id="paint0_linear_20_1005" x1="52" y1="0" x2="52" y2="30" gradientUnits="userSpaceOnUse">
<stop offset="0.223958" stop-color="#FFD057"/>
<stop offset="0.520833" stop-color="#FFE6C2"/>
<stop offset="0.75" stop-color="#FFA623"/>
</linearGradient>
</defs>
</svg>
