<svg width="124" height="30" viewBox="0 0 124 30" fill="none" xmlns="http://www.w3.org/2000/svg">
<g filter="url(#filter0_dd_20_951)">
<rect width="124" height="30" rx="8" fill="url(#paint0_linear_20_951)"/>
<path d="M20.476 20.192C19.6227 20.192 18.8707 20.056 18.22 19.784C17.5747 19.512 17.068 19.1067 16.7 18.568C16.3373 18.024 16.156 17.3493 16.156 16.544C16.156 16.4587 16.156 16.3813 16.156 16.312C16.156 16.2373 16.156 16.1573 16.156 16.072H18.644C18.644 16.152 18.644 16.224 18.644 16.288C18.644 16.3467 18.644 16.416 18.644 16.496C18.644 17.0453 18.7987 17.4667 19.108 17.76C19.4173 18.0533 19.876 18.2 20.484 18.2C21.0973 18.2 21.5693 18.104 21.9 17.912C22.2307 17.7147 22.396 17.392 22.396 16.944C22.396 16.6293 22.2707 16.352 22.02 16.112C21.7747 15.872 21.4387 15.6587 21.012 15.472C20.5907 15.28 20.108 15.1013 19.564 14.936C18.972 14.7493 18.4227 14.504 17.916 14.2C17.4093 13.896 17.0013 13.5093 16.692 13.04C16.388 12.5707 16.236 11.992 16.236 11.304C16.236 10.6107 16.42 10.0213 16.788 9.536C17.156 9.04533 17.6573 8.672 18.292 8.416C18.9267 8.15467 19.644 8.024 20.444 8.024C21.2813 8.024 22.02 8.15467 22.66 8.416C23.3053 8.672 23.8093 9.05867 24.172 9.576C24.54 10.088 24.724 10.728 24.724 11.496C24.724 11.5813 24.724 11.6613 24.724 11.736C24.724 11.8053 24.724 11.8853 24.724 11.976H22.244C22.244 11.9173 22.244 11.856 22.244 11.792C22.244 11.728 22.244 11.6667 22.244 11.608C22.244 11.0907 22.1 10.6933 21.812 10.416C21.5293 10.1387 21.084 10 20.476 10C19.8893 10 19.4333 10.1067 19.108 10.32C18.788 10.5333 18.628 10.8613 18.628 11.304C18.628 11.624 18.7427 11.896 18.972 12.12C19.2067 12.344 19.5267 12.544 19.932 12.72C20.3373 12.896 20.7987 13.072 21.316 13.248C22.02 13.4933 22.6333 13.7653 23.156 14.064C23.684 14.3573 24.092 14.728 24.38 15.176C24.668 15.6187 24.812 16.184 24.812 16.872C24.812 17.576 24.6307 18.176 24.268 18.672C23.9053 19.168 23.396 19.5467 22.74 19.808C22.0893 20.064 21.3347 20.192 20.476 20.192ZM35.2928 15.736C35.2928 17.2293 34.8981 18.3467 34.1088 19.088C33.3194 19.824 32.2394 20.192 30.8688 20.192C29.4928 20.192 28.4101 19.824 27.6208 19.088C26.8368 18.3467 26.4448 17.2293 26.4448 15.736C26.4448 15.5333 26.4448 15.3173 26.4448 15.088C26.4448 14.8587 26.4448 14.6187 26.4448 14.368V8.2H28.9328V14.72C28.9328 14.9227 28.9328 15.112 28.9328 15.288C28.9328 15.464 28.9328 15.6267 28.9328 15.776C28.9328 16.608 29.0848 17.2213 29.3888 17.616C29.6928 18.0053 30.1861 18.2 30.8688 18.2C31.5461 18.2 32.0394 18.0053 32.3488 17.616C32.6581 17.2213 32.8128 16.608 32.8128 15.776V8.2H35.2928V15.736ZM41.2573 20.192C40.4039 20.192 39.6519 20.056 39.0013 19.784C38.3559 19.512 37.8493 19.1067 37.4813 18.568C37.1186 18.024 36.9373 17.3493 36.9373 16.544C36.9373 16.4587 36.9373 16.3813 36.9373 16.312C36.9373 16.2373 36.9373 16.1573 36.9373 16.072H39.4253C39.4253 16.152 39.4253 16.224 39.4253 16.288C39.4253 16.3467 39.4253 16.416 39.4253 16.496C39.4253 17.0453 39.5799 17.4667 39.8893 17.76C40.1986 18.0533 40.6573 18.2 41.2653 18.2C41.8786 18.2 42.3506 18.104 42.6813 17.912C43.0119 17.7147 43.1773 17.392 43.1773 16.944C43.1773 16.6293 43.0519 16.352 42.8013 16.112C42.5559 15.872 42.2199 15.6587 41.7933 15.472C41.3719 15.28 40.8893 15.1013 40.3453 14.936C39.7533 14.7493 39.2039 14.504 38.6973 14.2C38.1906 13.896 37.7826 13.5093 37.4733 13.04C37.1693 12.5707 37.0173 11.992 37.0173 11.304C37.0173 10.6107 37.2013 10.0213 37.5693 9.536C37.9373 9.04533 38.4386 8.672 39.0733 8.416C39.7079 8.15467 40.4253 8.024 41.2253 8.024C42.0626 8.024 42.8013 8.15467 43.4413 8.416C44.0866 8.672 44.5906 9.05867 44.9533 9.576C45.3213 10.088 45.5052 10.728 45.5052 11.496C45.5052 11.5813 45.5052 11.6613 45.5052 11.736C45.5052 11.8053 45.5052 11.8853 45.5052 11.976H43.0253C43.0253 11.9173 43.0253 11.856 43.0253 11.792C43.0253 11.728 43.0253 11.6667 43.0253 11.608C43.0253 11.0907 42.8813 10.6933 42.5933 10.416C42.3106 10.1387 41.8653 10 41.2573 10C40.6706 10 40.2146 10.1067 39.8893 10.32C39.5693 10.5333 39.4093 10.8613 39.4093 11.304C39.4093 11.624 39.5239 11.896 39.7533 12.12C39.9879 12.344 40.3079 12.544 40.7133 12.72C41.1186 12.896 41.5799 13.072 42.0973 13.248C42.8013 13.4933 43.4146 13.7653 43.9373 14.064C44.4653 14.3573 44.8733 14.728 45.1613 15.176C45.4493 15.6187 45.5933 16.184 45.5933 16.872C45.5933 17.576 45.4119 18.176 45.0493 18.672C44.6866 19.168 44.1773 19.5467 43.5213 19.808C42.8706 20.064 42.1159 20.192 41.2573 20.192ZM49.714 20H47.226V8.2H51.266C52.1673 8.2 52.938 8.376 53.578 8.728C54.2233 9.07467 54.714 9.54667 55.05 10.144C55.3913 10.736 55.562 11.4053 55.562 12.152C55.562 12.8933 55.3887 13.5733 55.042 14.192C54.7007 14.8053 54.21 15.2987 53.57 15.672C52.93 16.04 52.162 16.224 51.266 16.224H49.714V20ZM49.714 15.456L48.594 14.304H51.002C51.418 14.304 51.7807 14.2213 52.09 14.056C52.3993 13.8853 52.6393 13.64 52.81 13.32C52.9807 12.9947 53.066 12.6053 53.066 12.152C53.066 11.6933 52.9807 11.3147 52.81 11.016C52.6447 10.712 52.4073 10.488 52.098 10.344C51.794 10.1947 51.4287 10.12 51.002 10.12H48.594L49.714 8.936V15.456ZM58.4926 10.12L59.6126 8.936V13.824L59.0526 13.12H63.4046V15.04H59.0526L59.6126 14.336V19.264L58.4926 18.08H64.2926V20H57.1166V8.2H64.2926V10.12H58.4926ZM68.6656 20H66.2416V8.2H70.0976L74.0496 19.104L73.6336 19.208V8.2H76.0496V20H72.1696L68.2176 9.128L68.6656 9.024V20ZM78.0073 20V8.2H81.8233C82.6126 8.2 83.3299 8.344 83.9753 8.632C84.6259 8.91467 85.1833 9.31733 85.6473 9.84C86.1166 10.3573 86.4766 10.976 86.7273 11.696C86.9779 12.416 87.1033 13.2107 87.1033 14.08C87.1033 14.9493 86.9779 15.7467 86.7273 16.472C86.4766 17.1973 86.1166 17.824 85.6473 18.352C85.1833 18.8747 84.6259 19.28 83.9753 19.568C83.3299 19.856 82.6126 20 81.8233 20H78.0073ZM80.5033 19.264L79.3832 18.08H81.5033C82.0793 18.08 82.5993 17.92 83.0633 17.6C83.5326 17.2747 83.9033 16.8133 84.1753 16.216C84.4473 15.6133 84.5833 14.9013 84.5833 14.08C84.5833 13.2533 84.4473 12.5467 84.1753 11.96C83.9033 11.368 83.5326 10.9147 83.0633 10.6C82.5993 10.28 82.0793 10.12 81.5033 10.12H79.3832L80.5033 8.936V19.264ZM90.1176 10.12L91.2376 8.936V13.824L90.6776 13.12H95.0296V15.04H90.6776L91.2376 14.336V19.264L90.1176 18.08H95.9176V20H88.7416V8.2H95.9176V10.12H90.1176ZM97.8666 20V8.2H101.683C102.472 8.2 103.189 8.344 103.835 8.632C104.485 8.91467 105.043 9.31733 105.507 9.84C105.976 10.3573 106.336 10.976 106.587 11.696C106.837 12.416 106.963 13.2107 106.963 14.08C106.963 14.9493 106.837 15.7467 106.587 16.472C106.336 17.1973 105.976 17.824 105.507 18.352C105.043 18.8747 104.485 19.28 103.835 19.568C103.189 19.856 102.472 20 101.683 20H97.8666ZM100.363 19.264L99.2426 18.08H101.363C101.939 18.08 102.459 17.92 102.923 17.6C103.392 17.2747 103.763 16.8133 104.035 16.216C104.307 15.6133 104.443 14.9013 104.443 14.08C104.443 13.2533 104.307 12.5467 104.035 11.96C103.763 11.368 103.392 10.9147 102.923 10.6C102.459 10.28 101.939 10.12 101.363 10.12H99.2426L100.363 8.936V19.264Z" fill="#222222"/>
</g>
<defs>
<filter id="filter0_dd_20_951" x="-106" y="-25" width="336" height="242" filterUnits="userSpaceOnUse" color-interpolation-filters="sRGB">
<feFlood flood-opacity="0" result="BackgroundImageFix"/>
<feColorMatrix in="SourceAlpha" type="matrix" values="0 0 0 0 0 0 0 0 0 0 0 0 0 0 0 0 0 0 127 0" result="hardAlpha"/>
<feOffset dy="10.1425"/>
<feGaussianBlur stdDeviation="6.63642"/>
<feColorMatrix type="matrix" values="0 0 0 0 0 0 0 0 0 0 0 0 0 0 0 0 0 0 0.0290085 0"/>
<feBlend mode="normal" in2="BackgroundImageFix" result="effect1_dropShadow_20_951"/>
<feColorMatrix in="SourceAlpha" type="matrix" values="0 0 0 0 0 0 0 0 0 0 0 0 0 0 0 0 0 0 127 0" result="hardAlpha"/>
<feOffset dy="81"/>
<feGaussianBlur stdDeviation="53"/>
<feColorMatrix type="matrix" values="0 0 0 0 0 0 0 0 0 0 0 0 0 0 0 0 0 0 0.07 0"/>
<feBlend mode="normal" in2="effect1_dropShadow_20_951" result="effect2_dropShadow_20_951"/>
<feBlend mode="normal" in="SourceGraphic" in2="effect2_dropShadow_20_951" result="shape"/>
</filter>
<linearGradient id="paint0_linear_20_951" x1="62" y1="0" x2="62" y2="30" gradientUnits="userSpaceOnUse">
<stop offset="0.0572917" stop-color="#959595"/>
<stop offset="0.520833" stop-color="#F8F8F8"/>
<stop offset="1" stop-color="#808080"/>
</linearGradient>
</defs>
</svg>
