<svg width="278" height="485" viewBox="0 0 278 485" fill="none" xmlns="http://www.w3.org/2000/svg">
<path d="M2 398.808L11.523 406.399L2 413.3V459.537V462.684C2 473.904 11.0956 483 22.3156 483H254.041C265.962 483 275.626 473.336 275.626 461.415V459.537V413.3L266.103 406.399L275.626 398.808V25.4634V24.2202C275.626 11.9483 265.678 2 253.406 2H24.2202C11.9483 2 2 11.9483 2 24.2202V24.7733V398.808Z" fill="#111032"/>
<path d="M2 398.808L11.523 406.399L2 413.3V459.537V462.684C2 473.904 11.0956 483 22.3156 483H254.041C265.962 483 275.626 473.336 275.626 461.415V459.537V413.3L266.103 406.399L275.626 398.808V25.4634V24.2202C275.626 11.9483 265.678 2 253.406 2H24.2202C11.9483 2 2 11.9483 2 24.2202V24.7733V398.808Z" fill="black"/>
<path d="M2 398.808L11.523 406.399L2 413.3V459.537V462.684C2 473.904 11.0956 483 22.3156 483H254.041C265.962 483 275.626 473.336 275.626 461.415V459.537V413.3L266.103 406.399L275.626 398.808V25.4634V24.2202C275.626 11.9483 265.678 2 253.406 2H24.2202C11.9483 2 2 11.9483 2 24.2202V24.7733V398.808Z" stroke="url(#paint0_linear_58_1879)" stroke-width="3.80918"/>
<path d="M26.1247 406.399H31.8384M35.6476 406.399H41.9963M45.8054 406.399H50.2495H51.5192M66.1211 406.399H71.8348M76.2789 406.399H79.4532H82.6275M17.8714 406.399H22.3155M55.9633 406.399H58.8201H61.677M85.8018 406.399H88.9762H92.1505M95.3248 406.399H98.4991H101.673M106.117 406.399H111.831M116.275 406.399H119.45H122.624M125.798 406.399H128.973H132.147M135.321 406.399H138.496H141.67M146.114 406.399H151.828M156.272 406.399H159.446H162.62M165.795 406.399H168.969H172.143M175.318 406.399H178.492H181.666M186.745 406.399H192.459M196.903 406.399H200.077H203.252M206.426 406.399H209.6H212.775M215.949 406.399H219.123H222.298M226.107 406.399H231.821M236.265 406.399H239.439H241.343M245.788 406.399H248.962H250.866M255.31 406.399H258.485H259.755" stroke="#930FFC" stroke-opacity="0.7" stroke-width="1.5"/>
<rect x="21.4996" y="425.5" width="34" height="34" rx="7.5" stroke="url(#paint1_linear_58_1879)"/>
<rect x="61.4996" y="425.5" width="34" height="34" rx="7.5" stroke="url(#paint2_linear_58_1879)"/>
<rect x="101.5" y="425.5" width="34" height="34" rx="7.5" stroke="url(#paint3_linear_58_1879)"/>
<path d="M152.288 448L150.56 436.2H153.112L154.368 447.464L154.008 447.448L156.008 436.2H159.104L161.096 447.448L160.736 447.464L161.992 436.2H164.544L162.816 448H159.008L157.432 437.92H157.688L156.096 448H152.288ZM165.981 448V439.504H168.437V448H165.981ZM167.205 438.12C166.821 438.12 166.485 438.019 166.197 437.816C165.914 437.613 165.773 437.328 165.773 436.96C165.773 436.587 165.914 436.299 166.197 436.096C166.485 435.893 166.821 435.792 167.205 435.792C167.594 435.792 167.93 435.893 168.213 436.096C168.501 436.299 168.645 436.587 168.645 436.96C168.645 437.333 168.501 437.621 168.213 437.824C167.93 438.021 167.594 438.12 167.205 438.12ZM176.249 448V444.392C176.249 444.189 176.249 444.005 176.249 443.84C176.249 443.675 176.249 443.525 176.249 443.392C176.249 443.04 176.203 442.72 176.113 442.432C176.022 442.139 175.859 441.904 175.625 441.728C175.39 441.552 175.051 441.464 174.609 441.464C174.225 441.464 173.891 441.552 173.609 441.728C173.331 441.904 173.118 442.149 172.969 442.464C172.819 442.779 172.745 443.141 172.745 443.552L172.057 443.056C172.057 442.32 172.217 441.675 172.537 441.12C172.857 440.565 173.289 440.131 173.833 439.816C174.382 439.501 174.99 439.344 175.657 439.344C176.355 439.344 176.929 439.485 177.377 439.768C177.83 440.045 178.166 440.435 178.385 440.936C178.609 441.432 178.721 442.013 178.721 442.68C178.721 442.952 178.721 443.256 178.721 443.592C178.721 443.928 178.721 444.272 178.721 444.624V448H176.249ZM170.265 448V439.504H172.745V448H170.265ZM186.561 448V444.392C186.561 444.189 186.561 444.005 186.561 443.84C186.561 443.675 186.561 443.525 186.561 443.392C186.561 443.04 186.516 442.72 186.425 442.432C186.334 442.139 186.172 441.904 185.937 441.728C185.702 441.552 185.364 441.464 184.921 441.464C184.537 441.464 184.204 441.552 183.921 441.728C183.644 441.904 183.43 442.149 183.281 442.464C183.132 442.779 183.057 443.141 183.057 443.552L182.369 443.056C182.369 442.32 182.529 441.675 182.849 441.12C183.169 440.565 183.601 440.131 184.145 439.816C184.694 439.501 185.302 439.344 185.969 439.344C186.668 439.344 187.241 439.485 187.689 439.768C188.142 440.045 188.478 440.435 188.697 440.936C188.921 441.432 189.033 442.013 189.033 442.68C189.033 442.952 189.033 443.256 189.033 443.592C189.033 443.928 189.033 444.272 189.033 444.624V448H186.561ZM180.577 448V439.504H183.057V448H180.577ZM190.794 448V439.504H193.25V448H190.794ZM192.018 438.12C191.634 438.12 191.298 438.019 191.01 437.816C190.727 437.613 190.586 437.328 190.586 436.96C190.586 436.587 190.727 436.299 191.01 436.096C191.298 435.893 191.634 435.792 192.018 435.792C192.407 435.792 192.743 435.893 193.026 436.096C193.314 436.299 193.458 436.587 193.458 436.96C193.458 437.333 193.314 437.621 193.026 437.824C192.743 438.021 192.407 438.12 192.018 438.12ZM201.061 448V444.392C201.061 444.189 201.061 444.005 201.061 443.84C201.061 443.675 201.061 443.525 201.061 443.392C201.061 443.04 201.016 442.72 200.925 442.432C200.834 442.139 200.672 441.904 200.437 441.728C200.202 441.552 199.864 441.464 199.421 441.464C199.037 441.464 198.704 441.552 198.421 441.728C198.144 441.904 197.93 442.149 197.781 442.464C197.632 442.779 197.557 443.141 197.557 443.552L196.869 443.056C196.869 442.32 197.029 441.675 197.349 441.12C197.669 440.565 198.101 440.131 198.645 439.816C199.194 439.501 199.802 439.344 200.469 439.344C201.168 439.344 201.741 439.485 202.189 439.768C202.642 440.045 202.978 440.435 203.197 440.936C203.421 441.432 203.533 442.013 203.533 442.68C203.533 442.952 203.533 443.256 203.533 443.592C203.533 443.928 203.533 444.272 203.533 444.624V448H201.061ZM195.077 448V439.504H197.557V448H195.077ZM211.254 446.992C211.776 447.045 212.232 447.147 212.622 447.296C213.016 447.44 213.323 447.656 213.542 447.944C213.76 448.227 213.87 448.605 213.87 449.08C213.87 449.629 213.688 450.096 213.326 450.48C212.968 450.869 212.443 451.165 211.75 451.368C211.056 451.571 210.216 451.672 209.23 451.672C207.774 451.672 206.646 451.461 205.846 451.04C205.051 450.624 204.654 450.067 204.654 449.368C204.654 449.171 204.675 448.992 204.718 448.832C204.766 448.677 204.824 448.544 204.894 448.432L207.15 448.76C207.123 448.797 207.094 448.853 207.062 448.928C207.035 449.008 207.022 449.107 207.022 449.224C207.022 449.507 207.232 449.717 207.654 449.856C208.08 449.995 208.63 450.064 209.302 450.064C209.776 450.064 210.182 450.029 210.518 449.96C210.859 449.896 211.118 449.8 211.294 449.672C211.475 449.544 211.566 449.397 211.566 449.232C211.566 448.992 211.448 448.835 211.214 448.76C210.984 448.685 210.718 448.632 210.414 448.6L207.198 448.272C206.606 448.213 206.115 448.043 205.726 447.76C205.336 447.477 205.142 447.096 205.142 446.616C205.142 446.317 205.224 446.045 205.39 445.8C205.555 445.549 205.744 445.344 205.958 445.184C206.171 445.019 206.35 444.915 206.494 444.872L207.758 445.512C207.656 445.528 207.536 445.592 207.398 445.704C207.264 445.816 207.198 445.947 207.198 446.096C207.198 446.245 207.272 446.373 207.422 446.48C207.576 446.587 207.856 446.659 208.262 446.696L211.254 446.992ZM212.094 439.504H214.278L213.39 442.768C213.224 443.387 212.979 443.939 212.654 444.424C212.328 444.904 211.894 445.283 211.35 445.56C210.811 445.837 210.131 445.976 209.31 445.976C208.446 445.976 207.696 445.843 207.062 445.576C206.432 445.309 205.947 444.933 205.606 444.448C205.264 443.957 205.094 443.379 205.094 442.712C205.094 442.045 205.267 441.459 205.614 440.952C205.966 440.445 206.443 440.051 207.046 439.768C207.654 439.485 208.342 439.344 209.11 439.344C209.691 439.344 210.222 439.44 210.702 439.632C211.187 439.819 211.576 440.067 211.87 440.376C212.168 440.685 212.323 441.027 212.334 441.4L211.878 441.52L212.094 439.504ZM209.294 444.16C209.646 444.16 209.955 444.104 210.222 443.992C210.488 443.875 210.696 443.707 210.846 443.488C210.995 443.264 211.07 442.995 211.07 442.68C211.07 442.371 210.995 442.107 210.846 441.888C210.696 441.669 210.488 441.501 210.222 441.384C209.955 441.267 209.646 441.208 209.294 441.208C208.958 441.208 208.654 441.269 208.382 441.392C208.115 441.509 207.904 441.68 207.75 441.904C207.595 442.123 207.518 442.389 207.518 442.704C207.518 443.013 207.592 443.277 207.742 443.496C207.891 443.709 208.099 443.875 208.366 443.992C208.632 444.104 208.942 444.16 209.294 444.16ZM221.915 448H219.491V436.2H223.347L227.299 447.104L226.883 447.208V436.2H229.299V448H225.419L221.467 437.128L221.915 437.024V448ZM232.617 438.12L233.737 436.936V441.904L232.969 441.28H237.793V443.2H232.969L233.737 442.528V448H231.257V436.2H238.505V438.12H232.617ZM248.058 438.12H244.162L245.154 436.936V448H242.682V436.936L243.706 438.12H239.786V436.2H248.058V438.12ZM251.972 448.192C251.466 448.192 250.978 448.133 250.508 448.016C250.039 447.899 249.618 447.725 249.244 447.496C248.876 447.267 248.583 446.981 248.364 446.64C248.151 446.293 248.044 445.891 248.044 445.432C248.044 445.411 248.044 445.387 248.044 445.36C248.044 445.328 248.044 445.304 248.044 445.288H250.508C250.508 445.304 250.508 445.323 250.508 445.344C250.508 445.36 250.508 445.379 250.508 445.4C250.508 445.709 250.644 445.936 250.916 446.08C251.194 446.224 251.567 446.296 252.036 446.296C252.282 446.296 252.516 446.272 252.74 446.224C252.97 446.171 253.156 446.088 253.3 445.976C253.45 445.859 253.524 445.712 253.524 445.536C253.524 445.253 253.367 445.053 253.052 444.936C252.743 444.819 252.244 444.701 251.556 444.584C251.167 444.52 250.772 444.429 250.372 444.312C249.972 444.195 249.604 444.04 249.268 443.848C248.932 443.651 248.663 443.403 248.46 443.104C248.258 442.8 248.156 442.432 248.156 442C248.156 441.424 248.33 440.939 248.676 440.544C249.028 440.149 249.495 439.851 250.076 439.648C250.658 439.445 251.298 439.344 251.996 439.344C252.663 439.344 253.284 439.456 253.86 439.68C254.436 439.899 254.903 440.216 255.26 440.632C255.618 441.043 255.796 441.539 255.796 442.12C255.796 442.131 255.796 442.147 255.796 442.168C255.796 442.189 255.796 442.211 255.796 442.232H253.356C253.356 442.211 253.356 442.192 253.356 442.176C253.356 442.16 253.356 442.147 253.356 442.136C253.356 441.923 253.287 441.749 253.148 441.616C253.015 441.483 252.844 441.384 252.636 441.32C252.428 441.251 252.212 441.216 251.988 441.216C251.786 441.216 251.575 441.24 251.356 441.288C251.143 441.331 250.962 441.405 250.812 441.512C250.663 441.613 250.588 441.757 250.588 441.944C250.588 442.125 250.668 442.275 250.828 442.392C250.988 442.504 251.212 442.597 251.5 442.672C251.788 442.741 252.122 442.808 252.5 442.872C252.858 442.931 253.234 443.013 253.628 443.12C254.028 443.221 254.402 443.368 254.748 443.56C255.1 443.747 255.383 443.995 255.596 444.304C255.815 444.608 255.924 444.995 255.924 445.464C255.924 445.949 255.812 446.365 255.588 446.712C255.364 447.059 255.06 447.341 254.676 447.56C254.298 447.773 253.874 447.931 253.404 448.032C252.94 448.139 252.463 448.192 251.972 448.192Z" fill="#FCFCFC"/>
<defs>
<linearGradient id="paint0_linear_58_1879" x1="138.813" y1="2" x2="138.813" y2="483" gradientUnits="userSpaceOnUse">
<stop stop-color="#FFD057"/>
<stop offset="0.151042" stop-color="#9F03FF"/>
<stop offset="0.536458" stop-color="#00DFBA"/>
<stop offset="0.890625" stop-color="#9F03FF"/>
<stop offset="1" stop-color="#FFAC33"/>
</linearGradient>
<linearGradient id="paint1_linear_58_1879" x1="20.9996" y1="425" x2="63.1915" y2="444.176" gradientUnits="userSpaceOnUse">
<stop stop-color="#FFAC33"/>
<stop offset="0.28125" stop-color="#9F03FF"/>
<stop offset="0.28125" stop-color="#9F03FF"/>
<stop offset="0.28125" stop-color="#9F03FF"/>
<stop offset="0.739583" stop-color="#9F03FF"/>
<stop offset="0.958333" stop-color="#00DFBA"/>
</linearGradient>
<linearGradient id="paint2_linear_58_1879" x1="60.9996" y1="425" x2="103.192" y2="444.176" gradientUnits="userSpaceOnUse">
<stop stop-color="#FFAC33"/>
<stop offset="0.28125" stop-color="#9F03FF"/>
<stop offset="0.28125" stop-color="#9F03FF"/>
<stop offset="0.28125" stop-color="#9F03FF"/>
<stop offset="0.739583" stop-color="#9F03FF"/>
<stop offset="0.958333" stop-color="#00DFBA"/>
</linearGradient>
<linearGradient id="paint3_linear_58_1879" x1="101" y1="425" x2="143.192" y2="444.176" gradientUnits="userSpaceOnUse">
<stop stop-color="#FFAC33"/>
<stop offset="0.28125" stop-color="#9F03FF"/>
<stop offset="0.28125" stop-color="#9F03FF"/>
<stop offset="0.28125" stop-color="#9F03FF"/>
<stop offset="0.739583" stop-color="#9F03FF"/>
<stop offset="0.958333" stop-color="#00DFBA"/>
</linearGradient>
</defs>
</svg>
