<?xml version="1.0" encoding="UTF-8"?>
<svg xmlns="http://www.w3.org/2000/svg" xmlns:xlink="http://www.w3.org/1999/xlink" width="px" height="px" viewBox="0 0 209 364" version="1.1">
<defs>
<linearGradient id="linear0" gradientUnits="userSpaceOnUse" x1="138.813" y1="2" x2="138.813" y2="483" gradientTransform="matrix(1,0,0,1,0,0)">
<stop offset="0" style="stop-color:rgb(100%,81.568627%,34.117647%);stop-opacity:1;"/>
<stop offset="0.151042" style="stop-color:rgb(62.352941%,1.176471%,100%);stop-opacity:1;"/>
<stop offset="0.536458" style="stop-color:rgb(0%,87.45098%,72.941176%);stop-opacity:1;"/>
<stop offset="0.890625" style="stop-color:rgb(62.352941%,1.176471%,100%);stop-opacity:1;"/>
<stop offset="1" style="stop-color:rgb(100%,67.45098%,20%);stop-opacity:1;"/>
</linearGradient>
<linearGradient id="linear1" gradientUnits="userSpaceOnUse" x1="20.9996" y1="425" x2="63.1915" y2="444.176" gradientTransform="matrix(1,0,0,1,0,0)">
<stop offset="0" style="stop-color:rgb(100%,67.45098%,20%);stop-opacity:1;"/>
<stop offset="0.28125" style="stop-color:rgb(62.352941%,1.176471%,100%);stop-opacity:1;"/>
<stop offset="0.28125" style="stop-color:rgb(62.352941%,1.176471%,100%);stop-opacity:1;"/>
<stop offset="0.28125" style="stop-color:rgb(62.352941%,1.176471%,100%);stop-opacity:1;"/>
<stop offset="0.739583" style="stop-color:rgb(62.352941%,1.176471%,100%);stop-opacity:1;"/>
<stop offset="0.958333" style="stop-color:rgb(0%,87.45098%,72.941176%);stop-opacity:1;"/>
</linearGradient>
<linearGradient id="linear2" gradientUnits="userSpaceOnUse" x1="60.9996" y1="425" x2="103.192" y2="444.176" gradientTransform="matrix(1,0,0,1,0,0)">
<stop offset="0" style="stop-color:rgb(100%,67.45098%,20%);stop-opacity:1;"/>
<stop offset="0.28125" style="stop-color:rgb(62.352941%,1.176471%,100%);stop-opacity:1;"/>
<stop offset="0.28125" style="stop-color:rgb(62.352941%,1.176471%,100%);stop-opacity:1;"/>
<stop offset="0.28125" style="stop-color:rgb(62.352941%,1.176471%,100%);stop-opacity:1;"/>
<stop offset="0.739583" style="stop-color:rgb(62.352941%,1.176471%,100%);stop-opacity:1;"/>
<stop offset="0.958333" style="stop-color:rgb(0%,87.45098%,72.941176%);stop-opacity:1;"/>
</linearGradient>
<linearGradient id="linear3" gradientUnits="userSpaceOnUse" x1="101" y1="425" x2="143.192" y2="444.176" gradientTransform="matrix(1,0,0,1,0,0)">
<stop offset="0" style="stop-color:rgb(100%,67.45098%,20%);stop-opacity:1;"/>
<stop offset="0.28125" style="stop-color:rgb(62.352941%,1.176471%,100%);stop-opacity:1;"/>
<stop offset="0.28125" style="stop-color:rgb(62.352941%,1.176471%,100%);stop-opacity:1;"/>
<stop offset="0.28125" style="stop-color:rgb(62.352941%,1.176471%,100%);stop-opacity:1;"/>
<stop offset="0.739583" style="stop-color:rgb(62.352941%,1.176471%,100%);stop-opacity:1;"/>
<stop offset="0.958333" style="stop-color:rgb(0%,87.45098%,72.941176%);stop-opacity:1;"/>
</linearGradient>
</defs>
<g id="surface1">
<path style=" stroke:none;fill-rule:nonzero;fill:rgb(6.666667%,6.27451%,19.607843%);fill-opacity:1;" d="M 1.503906 299.3125 L 8.664062 305.007812 L 1.503906 310.1875 L 1.503906 347.25 C 1.503906 355.671875 8.339844 362.5 16.777344 362.5 L 190.988281 362.5 C 199.949219 362.5 207.214844 355.246094 207.214844 346.300781 L 207.214844 310.1875 L 200.054688 305.007812 L 207.214844 299.3125 L 207.214844 18.175781 C 207.214844 8.96875 199.738281 1.5 190.511719 1.5 L 18.207031 1.5 C 8.984375 1.5 1.503906 8.96875 1.503906 18.175781 Z M 1.503906 299.3125 "/>
<path style="fill-rule:nonzero;fill:rgb(0%,0%,0%);fill-opacity:1;stroke-width:3.80918;stroke-linecap:butt;stroke-linejoin:miter;stroke:url(#linear0);stroke-miterlimit:4;" d="M 2.000411 398.809238 L 11.524447 406.397772 L 2.000411 413.299279 L 2.000411 462.682005 C 2.000411 473.90346 11.093189 483.001374 22.316275 483.001374 L 254.041829 483.001374 C 265.961162 483.001374 275.625486 473.336141 275.625486 461.41725 L 275.625486 413.299279 L 266.10145 406.397772 L 275.625486 398.809238 L 275.625486 24.217731 C 275.625486 11.95012 265.680585 1.998626 253.407932 1.998626 L 24.217965 1.998626 C 11.950508 1.998626 2.000411 11.95012 2.000411 24.217731 Z M 2.000411 398.809238 " transform="matrix(0.751799,0,0,0.750515,0,0)"/>
<path style="fill:none;stroke-width:1.5;stroke-linecap:butt;stroke-linejoin:miter;stroke:rgb(57.647059%,5.882353%,98.823529%);stroke-opacity:0.701961;stroke-miterlimit:4;" d="M 26.12485 406.397772 L 31.840311 406.397772 M 35.648886 406.397772 L 41.998243 406.397772 M 45.806818 406.397772 L 51.517083 406.397772 M 66.122682 406.397772 L 71.832947 406.397772 M 76.280615 406.397772 L 82.629972 406.397772 M 17.873804 406.397772 L 22.316275 406.397772 M 55.96475 406.397772 L 61.675015 406.397772 M 85.799454 406.397772 L 92.148811 406.397772 M 95.32349 406.397772 L 101.672847 406.397772 M 106.115318 406.397772 L 111.830779 406.397772 M 116.273251 406.397772 L 122.622608 406.397772 M 125.797286 406.397772 L 132.146643 406.397772 M 135.321322 406.397772 L 141.670679 406.397772 M 146.11315 406.397772 L 151.828611 406.397772 M 156.271083 406.397772 L 162.62044 406.397772 M 165.795118 406.397772 L 172.144475 406.397772 M 175.319154 406.397772 L 181.668511 406.397772 M 186.744879 406.397772 L 192.460339 406.397772 M 196.902811 406.397772 L 203.252168 406.397772 M 206.426847 406.397772 L 212.776204 406.397772 M 215.950882 406.397772 L 222.300239 406.397772 M 226.108814 406.397772 L 231.819079 406.397772 M 236.266746 406.397772 L 241.343115 406.397772 M 245.785586 406.397772 L 250.86715 406.397772 M 255.309622 406.397772 L 259.757289 406.397772 " transform="matrix(0.751799,0,0,0.750515,0,0)"/>
<path style="fill:none;stroke-width:1;stroke-linecap:butt;stroke-linejoin:miter;stroke:url(#linear1);stroke-miterlimit:4;" d="M 28.998168 425.499227 L 47.999477 425.499227 C 52.140588 425.499227 55.497122 428.856295 55.497122 432.999281 L 55.497122 452.001846 C 55.497122 456.139627 52.140588 459.501899 47.999477 459.501899 L 28.998168 459.501899 C 24.857057 459.501899 21.500523 456.139627 21.500523 452.001846 L 21.500523 432.999281 C 21.500523 428.856295 24.857057 425.499227 28.998168 425.499227 Z M 28.998168 425.499227 " transform="matrix(0.751799,0,0,0.750515,0,0)"/>
<path style="fill:none;stroke-width:1;stroke-linecap:butt;stroke-linejoin:miter;stroke:url(#linear2);stroke-miterlimit:4;" d="M 69.001196 425.499227 L 87.997309 425.499227 C 92.143615 425.499227 95.50015 428.856295 95.50015 432.999281 L 95.50015 452.001846 C 95.50015 456.139627 92.143615 459.501899 87.997309 459.501899 L 69.001196 459.501899 C 64.854889 459.501899 61.498355 456.139627 61.498355 452.001846 L 61.498355 432.999281 C 61.498355 428.856295 64.854889 425.499227 69.001196 425.499227 Z M 69.001196 425.499227 " transform="matrix(0.751799,0,0,0.750515,0,0)"/>
<path style="fill:none;stroke-width:1;stroke-linecap:butt;stroke-linejoin:miter;stroke:url(#linear3);stroke-miterlimit:4;" d="M 108.999028 425.499227 L 128.000336 425.499227 C 132.141447 425.499227 135.497981 428.856295 135.497981 432.999281 L 135.497981 452.001846 C 135.497981 456.139627 132.141447 459.501899 128.000336 459.501899 L 108.999028 459.501899 C 104.857917 459.501899 101.501383 456.139627 101.501383 452.001846 L 101.501383 432.999281 C 101.501383 428.856295 104.857917 425.499227 108.999028 425.499227 Z M 108.999028 425.499227 " transform="matrix(0.751799,0,0,0.750515,0,0)"/>
<path style=" stroke:none;fill-rule:nonzero;fill:rgb(98.823529%,98.823529%,98.823529%);fill-opacity:1;" d="M 114.488281 336.230469 L 113.191406 327.375 L 115.109375 327.375 L 116.054688 335.828125 L 115.78125 335.816406 L 117.285156 327.375 L 119.613281 327.375 L 121.113281 335.816406 L 120.839844 335.828125 L 121.785156 327.375 L 123.703125 327.375 L 122.40625 336.230469 L 119.542969 336.230469 L 118.355469 328.664062 L 118.550781 328.664062 L 117.351562 336.230469 Z M 124.785156 336.230469 L 124.785156 329.855469 L 126.628906 329.855469 L 126.628906 336.230469 Z M 125.703125 328.816406 C 125.414062 328.816406 125.164062 328.738281 124.945312 328.585938 C 124.734375 328.433594 124.628906 328.222656 124.628906 327.945312 C 124.628906 327.664062 124.734375 327.449219 124.945312 327.296875 C 125.164062 327.144531 125.414062 327.070312 125.703125 327.070312 C 125.996094 327.070312 126.25 327.144531 126.460938 327.296875 C 126.679688 327.449219 126.785156 327.664062 126.785156 327.945312 C 126.785156 328.226562 126.679688 328.441406 126.460938 328.59375 C 126.25 328.742188 125.996094 328.816406 125.703125 328.816406 Z M 132.503906 336.230469 L 132.503906 333.523438 C 132.503906 333.371094 132.503906 333.234375 132.503906 333.109375 C 132.503906 332.984375 132.503906 332.871094 132.503906 332.773438 C 132.503906 332.507812 132.46875 332.269531 132.402344 332.050781 C 132.332031 331.832031 132.210938 331.65625 132.035156 331.523438 C 131.859375 331.390625 131.601562 331.324219 131.269531 331.324219 C 130.980469 331.324219 130.730469 331.390625 130.519531 331.523438 C 130.308594 331.65625 130.148438 331.839844 130.039062 332.074219 C 129.925781 332.3125 129.871094 332.585938 129.871094 332.894531 L 129.351562 332.519531 C 129.351562 331.96875 129.472656 331.484375 129.714844 331.066406 C 129.953125 330.652344 130.277344 330.324219 130.6875 330.089844 C 131.101562 329.851562 131.558594 329.734375 132.058594 329.734375 C 132.582031 329.734375 133.015625 329.839844 133.351562 330.050781 C 133.691406 330.261719 133.945312 330.554688 134.109375 330.929688 C 134.277344 331.300781 134.363281 331.738281 134.363281 332.238281 C 134.363281 332.441406 134.363281 332.671875 134.363281 332.921875 C 134.363281 333.175781 134.363281 333.433594 134.363281 333.695312 L 134.363281 336.230469 Z M 128.003906 336.230469 L 128.003906 329.855469 L 129.871094 329.855469 L 129.871094 336.230469 Z M 140.257812 336.230469 L 140.257812 333.523438 C 140.257812 333.371094 140.257812 333.234375 140.257812 333.109375 C 140.257812 332.984375 140.257812 332.871094 140.257812 332.773438 C 140.257812 332.507812 140.222656 332.269531 140.152344 332.050781 C 140.085938 331.832031 139.964844 331.65625 139.789062 331.523438 C 139.609375 331.390625 139.355469 331.324219 139.023438 331.324219 C 138.734375 331.324219 138.484375 331.390625 138.273438 331.523438 C 138.0625 331.65625 137.902344 331.839844 137.789062 332.074219 C 137.679688 332.3125 137.621094 332.585938 137.621094 332.894531 L 137.105469 332.519531 C 137.105469 331.96875 137.226562 331.484375 137.464844 331.066406 C 137.707031 330.652344 138.03125 330.324219 138.441406 330.089844 C 138.851562 329.851562 139.308594 329.734375 139.8125 329.734375 C 140.335938 329.734375 140.765625 329.839844 141.105469 330.050781 C 141.445312 330.261719 141.699219 330.554688 141.863281 330.929688 C 142.03125 331.300781 142.113281 331.738281 142.113281 332.238281 C 142.113281 332.441406 142.113281 332.671875 142.113281 332.921875 C 142.113281 333.175781 142.113281 333.433594 142.113281 333.695312 L 142.113281 336.230469 Z M 135.757812 336.230469 L 135.757812 329.855469 L 137.621094 329.855469 L 137.621094 336.230469 Z M 143.4375 336.230469 L 143.4375 329.855469 L 145.285156 329.855469 L 145.285156 336.230469 Z M 144.359375 328.816406 C 144.070312 328.816406 143.816406 328.738281 143.601562 328.585938 C 143.386719 328.433594 143.28125 328.222656 143.28125 327.945312 C 143.28125 327.664062 143.386719 327.449219 143.601562 327.296875 C 143.816406 327.144531 144.070312 327.070312 144.359375 327.070312 C 144.652344 327.070312 144.902344 327.144531 145.117188 327.296875 C 145.332031 327.449219 145.441406 327.664062 145.441406 327.945312 C 145.441406 328.226562 145.332031 328.441406 145.117188 328.59375 C 144.902344 328.742188 144.652344 328.816406 144.359375 328.816406 Z M 151.15625 336.230469 L 151.15625 333.523438 C 151.15625 333.371094 151.15625 333.234375 151.15625 333.109375 C 151.15625 332.984375 151.15625 332.871094 151.15625 332.773438 C 151.15625 332.507812 151.125 332.269531 151.054688 332.050781 C 150.988281 331.832031 150.863281 331.65625 150.6875 331.523438 C 150.511719 331.390625 150.257812 331.324219 149.925781 331.324219 C 149.636719 331.324219 149.386719 331.390625 149.171875 331.523438 C 148.964844 331.65625 148.804688 331.839844 148.691406 332.074219 C 148.578125 332.3125 148.523438 332.585938 148.523438 332.894531 L 148.003906 332.519531 C 148.003906 331.96875 148.125 331.484375 148.367188 331.066406 C 148.605469 330.652344 148.933594 330.324219 149.339844 330.089844 C 149.753906 329.851562 150.210938 329.734375 150.710938 329.734375 C 151.238281 329.734375 151.667969 329.839844 152.003906 330.050781 C 152.347656 330.261719 152.597656 330.554688 152.761719 330.929688 C 152.929688 331.300781 153.015625 331.738281 153.015625 332.238281 C 153.015625 332.441406 153.015625 332.671875 153.015625 332.921875 C 153.015625 333.175781 153.015625 333.433594 153.015625 333.695312 L 153.015625 336.230469 Z M 146.660156 336.230469 L 146.660156 329.855469 L 148.523438 329.855469 L 148.523438 336.230469 Z M 158.820312 335.472656 C 159.214844 335.515625 159.554688 335.589844 159.847656 335.703125 C 160.144531 335.8125 160.375 335.972656 160.539062 336.1875 C 160.703125 336.402344 160.789062 336.683594 160.789062 337.042969 C 160.789062 337.453125 160.648438 337.804688 160.378906 338.09375 C 160.109375 338.382812 159.714844 338.605469 159.191406 338.757812 C 158.671875 338.910156 158.039062 338.988281 157.296875 338.988281 C 156.203125 338.988281 155.355469 338.828125 154.753906 338.511719 C 154.15625 338.199219 153.859375 337.78125 153.859375 337.257812 C 153.859375 337.109375 153.875 336.976562 153.90625 336.855469 C 153.941406 336.738281 153.988281 336.640625 154.039062 336.554688 L 155.734375 336.800781 C 155.714844 336.828125 155.691406 336.871094 155.667969 336.925781 C 155.648438 336.988281 155.640625 337.0625 155.640625 337.148438 C 155.640625 337.363281 155.796875 337.519531 156.113281 337.625 C 156.433594 337.726562 156.847656 337.78125 157.351562 337.78125 C 157.710938 337.78125 158.015625 337.753906 158.265625 337.703125 C 158.523438 337.652344 158.71875 337.582031 158.851562 337.484375 C 158.988281 337.390625 159.054688 337.28125 159.054688 337.15625 C 159.054688 336.976562 158.964844 336.859375 158.789062 336.800781 C 158.617188 336.746094 158.417969 336.707031 158.1875 336.679688 L 155.769531 336.433594 C 155.324219 336.390625 154.957031 336.261719 154.664062 336.050781 C 154.371094 335.839844 154.226562 335.550781 154.226562 335.191406 C 154.226562 334.96875 154.285156 334.761719 154.410156 334.578125 C 154.535156 334.390625 154.679688 334.238281 154.839844 334.117188 C 155 333.992188 155.132812 333.914062 155.242188 333.882812 L 156.191406 334.363281 C 156.117188 334.375 156.023438 334.421875 155.921875 334.507812 C 155.820312 334.59375 155.769531 334.691406 155.769531 334.800781 C 155.769531 334.914062 155.828125 335.011719 155.941406 335.089844 C 156.054688 335.171875 156.265625 335.222656 156.570312 335.253906 Z M 159.453125 329.855469 L 161.09375 329.855469 L 160.425781 332.304688 C 160.300781 332.769531 160.117188 333.183594 159.871094 333.546875 C 159.628906 333.90625 159.300781 334.191406 158.894531 334.398438 C 158.488281 334.609375 157.976562 334.710938 157.359375 334.710938 C 156.710938 334.710938 156.144531 334.613281 155.667969 334.410156 C 155.195312 334.210938 154.832031 333.929688 154.574219 333.566406 C 154.316406 333.195312 154.1875 332.761719 154.1875 332.261719 C 154.1875 331.761719 154.320312 331.320312 154.582031 330.941406 C 154.84375 330.5625 155.203125 330.265625 155.65625 330.050781 C 156.113281 329.839844 156.632812 329.734375 157.207031 329.734375 C 157.644531 329.734375 158.042969 329.804688 158.40625 329.949219 C 158.769531 330.089844 159.0625 330.277344 159.285156 330.507812 C 159.507812 330.742188 159.625 330.996094 159.632812 331.277344 L 159.289062 331.367188 Z M 157.347656 333.347656 C 157.613281 333.347656 157.84375 333.308594 158.042969 333.222656 C 158.246094 333.136719 158.402344 333.007812 158.515625 332.84375 C 158.625 332.675781 158.683594 332.472656 158.683594 332.238281 C 158.683594 332.007812 158.625 331.808594 158.515625 331.644531 C 158.402344 331.480469 158.246094 331.351562 158.042969 331.265625 C 157.84375 331.175781 157.613281 331.132812 157.347656 331.132812 C 157.09375 331.132812 156.867188 331.179688 156.660156 331.273438 C 156.460938 331.359375 156.300781 331.488281 156.1875 331.65625 C 156.070312 331.820312 156.011719 332.019531 156.011719 332.257812 C 156.011719 332.488281 156.066406 332.6875 156.179688 332.851562 C 156.292969 333.011719 156.449219 333.136719 156.648438 333.222656 C 156.847656 333.308594 157.082031 333.347656 157.347656 333.347656 Z M 166.835938 336.230469 L 165.011719 336.230469 L 165.011719 327.375 L 167.910156 327.375 L 170.882812 335.558594 L 170.570312 335.636719 L 170.570312 327.375 L 172.386719 327.375 L 172.386719 336.230469 L 169.46875 336.230469 L 166.5 328.070312 L 166.835938 327.992188 Z M 174.882812 328.816406 L 175.722656 327.925781 L 175.722656 331.65625 L 175.144531 331.1875 L 178.773438 331.1875 L 178.773438 332.628906 L 175.144531 332.628906 L 175.722656 332.125 L 175.722656 336.230469 L 173.859375 336.230469 L 173.859375 327.375 L 179.308594 327.375 L 179.308594 328.816406 Z M 186.488281 328.816406 L 183.5625 328.816406 L 184.304688 327.925781 L 184.304688 336.230469 L 182.449219 336.230469 L 182.449219 327.925781 L 183.21875 328.816406 L 180.269531 328.816406 L 180.269531 327.375 L 186.488281 327.375 Z M 189.433594 336.375 C 189.050781 336.375 188.683594 336.332031 188.332031 336.242188 C 187.980469 336.15625 187.664062 336.023438 187.382812 335.851562 C 187.105469 335.679688 186.882812 335.464844 186.71875 335.210938 C 186.558594 334.949219 186.480469 334.648438 186.480469 334.304688 C 186.480469 334.289062 186.480469 334.269531 186.480469 334.25 C 186.480469 334.226562 186.480469 334.207031 186.480469 334.195312 L 188.332031 334.195312 C 188.332031 334.207031 188.332031 334.222656 188.332031 334.238281 C 188.332031 334.25 188.332031 334.265625 188.332031 334.28125 C 188.332031 334.511719 188.433594 334.683594 188.636719 334.789062 C 188.847656 334.898438 189.128906 334.953125 189.480469 334.953125 C 189.664062 334.953125 189.839844 334.933594 190.007812 334.898438 C 190.183594 334.859375 190.324219 334.796875 190.429688 334.710938 C 190.542969 334.625 190.597656 334.515625 190.597656 334.382812 C 190.597656 334.167969 190.480469 334.019531 190.242188 333.929688 C 190.011719 333.84375 189.636719 333.753906 189.121094 333.667969 C 188.828125 333.617188 188.53125 333.550781 188.230469 333.464844 C 187.929688 333.375 187.652344 333.257812 187.398438 333.113281 C 187.148438 332.96875 186.945312 332.78125 186.792969 332.554688 C 186.640625 332.328125 186.5625 332.050781 186.5625 331.726562 C 186.5625 331.296875 186.695312 330.929688 186.953125 330.636719 C 187.21875 330.339844 187.570312 330.113281 188.007812 329.960938 C 188.445312 329.808594 188.925781 329.734375 189.449219 329.734375 C 189.953125 329.734375 190.417969 329.820312 190.851562 329.988281 C 191.285156 330.152344 191.636719 330.390625 191.902344 330.699219 C 192.171875 331.007812 192.308594 331.382812 192.308594 331.816406 C 192.308594 331.824219 192.308594 331.839844 192.308594 331.855469 C 192.308594 331.871094 192.308594 331.886719 192.308594 331.902344 L 190.472656 331.902344 C 190.472656 331.886719 190.472656 331.871094 190.472656 331.859375 C 190.472656 331.847656 190.472656 331.839844 190.472656 331.828125 C 190.472656 331.671875 190.421875 331.539062 190.316406 331.441406 C 190.214844 331.339844 190.085938 331.265625 189.929688 331.21875 C 189.773438 331.164062 189.613281 331.140625 189.445312 331.140625 C 189.292969 331.140625 189.132812 331.15625 188.96875 331.195312 C 188.808594 331.226562 188.671875 331.28125 188.558594 331.363281 C 188.449219 331.4375 188.390625 331.546875 188.390625 331.6875 C 188.390625 331.820312 188.453125 331.933594 188.570312 332.023438 C 188.691406 332.105469 188.859375 332.175781 189.078125 332.230469 C 189.292969 332.285156 189.546875 332.335938 189.828125 332.382812 C 190.097656 332.425781 190.382812 332.488281 190.675781 332.570312 C 190.976562 332.644531 191.257812 332.753906 191.519531 332.898438 C 191.785156 333.039062 191.996094 333.226562 192.15625 333.457031 C 192.320312 333.683594 192.402344 333.976562 192.402344 334.328125 C 192.402344 334.691406 192.320312 335.003906 192.152344 335.265625 C 191.980469 335.523438 191.753906 335.738281 191.464844 335.902344 C 191.179688 336.0625 190.863281 336.179688 190.507812 336.253906 C 190.160156 336.335938 189.800781 336.375 189.433594 336.375 Z M 189.433594 336.375 "/>
</g>
</svg>
