<svg width="406" height="613" viewBox="0 0 406 613" fill="none" xmlns="http://www.w3.org/2000/svg">
<g filter="url(#filter0_d_58_1879)">
<path d="M66 457.808L75.523 465.399L66 472.3V518.537V521.684C66 532.904 75.0956 542 86.3156 542H318.041C329.962 542 339.626 532.336 339.626 520.415V518.537V472.3L330.103 465.399L339.626 457.808V84.4634V83.2202C339.626 70.9483 329.678 61 317.406 61H88.2202C75.9483 61 66 70.9483 66 83.2202V83.7733V457.808Z" fill="#111032"/>
<path d="M66 457.808L75.523 465.399L66 472.3V518.537V521.684C66 532.904 75.0956 542 86.3156 542H318.041C329.962 542 339.626 532.336 339.626 520.415V518.537V472.3L330.103 465.399L339.626 457.808V84.4634V83.2202C339.626 70.9483 329.678 61 317.406 61H88.2202C75.9483 61 66 70.9483 66 83.2202V83.7733V457.808Z" fill="black"/>
<path d="M66 457.808L75.523 465.399L66 472.3V518.537V521.684C66 532.904 75.0956 542 86.3156 542H318.041C329.962 542 339.626 532.336 339.626 520.415V518.537V472.3L330.103 465.399L339.626 457.808V84.4634V83.2202C339.626 70.9483 329.678 61 317.406 61H88.2202C75.9483 61 66 70.9483 66 83.2202V83.7733V457.808Z" stroke="url(#paint0_linear_58_1879)" stroke-width="3.80918"/>
</g>
<path d="M90.1247 465.399H95.8384M99.6476 465.399H105.996M109.805 465.399H114.249H115.519M130.121 465.399H135.835M140.279 465.399H143.453H146.628M81.8714 465.399H86.3155M119.963 465.399H122.82H125.677M149.802 465.399H152.976H156.15M159.325 465.399H162.499H165.673M170.117 465.399H175.831M180.275 465.399H183.45H186.624M189.798 465.399H192.973H196.147M199.321 465.399H202.496H205.67M210.114 465.399H215.828M220.272 465.399H223.446H226.62M229.795 465.399H232.969H236.143M239.318 465.399H242.492H245.666M250.745 465.399H256.459M260.903 465.399H264.077H267.252M270.426 465.399H273.6H276.775M279.949 465.399H283.123H286.298M290.107 465.399H295.821M300.265 465.399H303.439H305.343M309.788 465.399H312.962H314.866M319.31 465.399H322.485H323.755" stroke="#930FFC" stroke-opacity="0.7" stroke-width="1.5"/>
<rect x="85.4996" y="484.5" width="34" height="34" rx="7.5" stroke="url(#paint1_linear_58_1879)"/>
<rect x="125.5" y="484.5" width="34" height="34" rx="7.5" stroke="url(#paint2_linear_58_1879)"/>
<rect x="165.5" y="484.5" width="34" height="34" rx="7.5" stroke="url(#paint3_linear_58_1879)"/>
<path d="M216.288 507L214.56 495.2H217.112L218.368 506.464L218.008 506.448L220.008 495.2H223.104L225.096 506.448L224.736 506.464L225.992 495.2H228.544L226.816 507H223.008L221.432 496.92H221.688L220.096 507H216.288ZM229.981 507V498.504H232.437V507H229.981ZM231.205 497.12C230.821 497.12 230.485 497.019 230.197 496.816C229.914 496.613 229.773 496.328 229.773 495.96C229.773 495.587 229.914 495.299 230.197 495.096C230.485 494.893 230.821 494.792 231.205 494.792C231.594 494.792 231.93 494.893 232.213 495.096C232.501 495.299 232.645 495.587 232.645 495.96C232.645 496.333 232.501 496.621 232.213 496.824C231.93 497.021 231.594 497.12 231.205 497.12ZM240.249 507V503.392C240.249 503.189 240.249 503.005 240.249 502.84C240.249 502.675 240.249 502.525 240.249 502.392C240.249 502.04 240.203 501.72 240.113 501.432C240.022 501.139 239.859 500.904 239.625 500.728C239.39 500.552 239.051 500.464 238.609 500.464C238.225 500.464 237.891 500.552 237.609 500.728C237.331 500.904 237.118 501.149 236.969 501.464C236.819 501.779 236.745 502.141 236.745 502.552L236.057 502.056C236.057 501.32 236.217 500.675 236.537 500.12C236.857 499.565 237.289 499.131 237.833 498.816C238.382 498.501 238.99 498.344 239.657 498.344C240.355 498.344 240.929 498.485 241.377 498.768C241.83 499.045 242.166 499.435 242.385 499.936C242.609 500.432 242.721 501.013 242.721 501.68C242.721 501.952 242.721 502.256 242.721 502.592C242.721 502.928 242.721 503.272 242.721 503.624V507H240.249ZM234.265 507V498.504H236.745V507H234.265ZM250.561 507V503.392C250.561 503.189 250.561 503.005 250.561 502.84C250.561 502.675 250.561 502.525 250.561 502.392C250.561 502.04 250.516 501.72 250.425 501.432C250.334 501.139 250.172 500.904 249.937 500.728C249.702 500.552 249.364 500.464 248.921 500.464C248.537 500.464 248.204 500.552 247.921 500.728C247.644 500.904 247.43 501.149 247.281 501.464C247.132 501.779 247.057 502.141 247.057 502.552L246.369 502.056C246.369 501.32 246.529 500.675 246.849 500.12C247.169 499.565 247.601 499.131 248.145 498.816C248.694 498.501 249.302 498.344 249.969 498.344C250.668 498.344 251.241 498.485 251.689 498.768C252.142 499.045 252.478 499.435 252.697 499.936C252.921 500.432 253.033 501.013 253.033 501.68C253.033 501.952 253.033 502.256 253.033 502.592C253.033 502.928 253.033 503.272 253.033 503.624V507H250.561ZM244.577 507V498.504H247.057V507H244.577ZM254.794 507V498.504H257.25V507H254.794ZM256.018 497.12C255.634 497.12 255.298 497.019 255.01 496.816C254.727 496.613 254.586 496.328 254.586 495.96C254.586 495.587 254.727 495.299 255.01 495.096C255.298 494.893 255.634 494.792 256.018 494.792C256.407 494.792 256.743 494.893 257.026 495.096C257.314 495.299 257.458 495.587 257.458 495.96C257.458 496.333 257.314 496.621 257.026 496.824C256.743 497.021 256.407 497.12 256.018 497.12ZM265.061 507V503.392C265.061 503.189 265.061 503.005 265.061 502.84C265.061 502.675 265.061 502.525 265.061 502.392C265.061 502.04 265.016 501.72 264.925 501.432C264.834 501.139 264.672 500.904 264.437 500.728C264.202 500.552 263.864 500.464 263.421 500.464C263.037 500.464 262.704 500.552 262.421 500.728C262.144 500.904 261.93 501.149 261.781 501.464C261.632 501.779 261.557 502.141 261.557 502.552L260.869 502.056C260.869 501.32 261.029 500.675 261.349 500.12C261.669 499.565 262.101 499.131 262.645 498.816C263.194 498.501 263.802 498.344 264.469 498.344C265.168 498.344 265.741 498.485 266.189 498.768C266.642 499.045 266.978 499.435 267.197 499.936C267.421 500.432 267.533 501.013 267.533 501.68C267.533 501.952 267.533 502.256 267.533 502.592C267.533 502.928 267.533 503.272 267.533 503.624V507H265.061ZM259.077 507V498.504H261.557V507H259.077ZM275.254 505.992C275.776 506.045 276.232 506.147 276.622 506.296C277.016 506.44 277.323 506.656 277.542 506.944C277.76 507.227 277.87 507.605 277.87 508.08C277.87 508.629 277.688 509.096 277.326 509.48C276.968 509.869 276.443 510.165 275.75 510.368C275.056 510.571 274.216 510.672 273.23 510.672C271.774 510.672 270.646 510.461 269.846 510.04C269.051 509.624 268.654 509.067 268.654 508.368C268.654 508.171 268.675 507.992 268.718 507.832C268.766 507.677 268.824 507.544 268.894 507.432L271.15 507.76C271.123 507.797 271.094 507.853 271.062 507.928C271.035 508.008 271.022 508.107 271.022 508.224C271.022 508.507 271.232 508.717 271.654 508.856C272.08 508.995 272.63 509.064 273.302 509.064C273.776 509.064 274.182 509.029 274.518 508.96C274.859 508.896 275.118 508.8 275.294 508.672C275.475 508.544 275.566 508.397 275.566 508.232C275.566 507.992 275.448 507.835 275.214 507.76C274.984 507.685 274.718 507.632 274.414 507.6L271.198 507.272C270.606 507.213 270.115 507.043 269.726 506.76C269.336 506.477 269.142 506.096 269.142 505.616C269.142 505.317 269.224 505.045 269.39 504.8C269.555 504.549 269.744 504.344 269.958 504.184C270.171 504.019 270.35 503.915 270.494 503.872L271.758 504.512C271.656 504.528 271.536 504.592 271.398 504.704C271.264 504.816 271.198 504.947 271.198 505.096C271.198 505.245 271.272 505.373 271.422 505.48C271.576 505.587 271.856 505.659 272.262 505.696L275.254 505.992ZM276.094 498.504H278.278L277.39 501.768C277.224 502.387 276.979 502.939 276.654 503.424C276.328 503.904 275.894 504.283 275.35 504.56C274.811 504.837 274.131 504.976 273.31 504.976C272.446 504.976 271.696 504.843 271.062 504.576C270.432 504.309 269.947 503.933 269.606 503.448C269.264 502.957 269.094 502.379 269.094 501.712C269.094 501.045 269.267 500.459 269.614 499.952C269.966 499.445 270.443 499.051 271.046 498.768C271.654 498.485 272.342 498.344 273.11 498.344C273.691 498.344 274.222 498.44 274.702 498.632C275.187 498.819 275.576 499.067 275.87 499.376C276.168 499.685 276.323 500.027 276.334 500.4L275.878 500.52L276.094 498.504ZM273.294 503.16C273.646 503.16 273.955 503.104 274.222 502.992C274.488 502.875 274.696 502.707 274.846 502.488C274.995 502.264 275.07 501.995 275.07 501.68C275.07 501.371 274.995 501.107 274.846 500.888C274.696 500.669 274.488 500.501 274.222 500.384C273.955 500.267 273.646 500.208 273.294 500.208C272.958 500.208 272.654 500.269 272.382 500.392C272.115 500.509 271.904 500.68 271.75 500.904C271.595 501.123 271.518 501.389 271.518 501.704C271.518 502.013 271.592 502.277 271.742 502.496C271.891 502.709 272.099 502.875 272.366 502.992C272.632 503.104 272.942 503.16 273.294 503.16ZM285.915 507H283.491V495.2H287.347L291.299 506.104L290.883 506.208V495.2H293.299V507H289.419L285.467 496.128L285.915 496.024V507ZM296.617 497.12L297.737 495.936V500.904L296.969 500.28H301.793V502.2H296.969L297.737 501.528V507H295.257V495.2H302.505V497.12H296.617ZM312.058 497.12H308.162L309.154 495.936V507H306.682V495.936L307.706 497.12H303.786V495.2H312.058V497.12ZM315.972 507.192C315.466 507.192 314.978 507.133 314.508 507.016C314.039 506.899 313.618 506.725 313.244 506.496C312.876 506.267 312.583 505.981 312.364 505.64C312.151 505.293 312.044 504.891 312.044 504.432C312.044 504.411 312.044 504.387 312.044 504.36C312.044 504.328 312.044 504.304 312.044 504.288H314.508C314.508 504.304 314.508 504.323 314.508 504.344C314.508 504.36 314.508 504.379 314.508 504.4C314.508 504.709 314.644 504.936 314.916 505.08C315.194 505.224 315.567 505.296 316.036 505.296C316.282 505.296 316.516 505.272 316.74 505.224C316.97 505.171 317.156 505.088 317.3 504.976C317.45 504.859 317.524 504.712 317.524 504.536C317.524 504.253 317.367 504.053 317.052 503.936C316.743 503.819 316.244 503.701 315.556 503.584C315.167 503.52 314.772 503.429 314.372 503.312C313.972 503.195 313.604 503.04 313.268 502.848C312.932 502.651 312.663 502.403 312.46 502.104C312.258 501.8 312.156 501.432 312.156 501C312.156 500.424 312.33 499.939 312.676 499.544C313.028 499.149 313.495 498.851 314.076 498.648C314.658 498.445 315.298 498.344 315.996 498.344C316.663 498.344 317.284 498.456 317.86 498.68C318.436 498.899 318.903 499.216 319.26 499.632C319.618 500.043 319.796 500.539 319.796 501.12C319.796 501.131 319.796 501.147 319.796 501.168C319.796 501.189 319.796 501.211 319.796 501.232H317.356C317.356 501.211 317.356 501.192 317.356 501.176C317.356 501.16 317.356 501.147 317.356 501.136C317.356 500.923 317.287 500.749 317.148 500.616C317.015 500.483 316.844 500.384 316.636 500.32C316.428 500.251 316.212 500.216 315.988 500.216C315.786 500.216 315.575 500.24 315.356 500.288C315.143 500.331 314.962 500.405 314.812 500.512C314.663 500.613 314.588 500.757 314.588 500.944C314.588 501.125 314.668 501.275 314.828 501.392C314.988 501.504 315.212 501.597 315.5 501.672C315.788 501.741 316.122 501.808 316.5 501.872C316.858 501.931 317.234 502.013 317.628 502.12C318.028 502.221 318.402 502.368 318.748 502.56C319.1 502.747 319.383 502.995 319.596 503.304C319.815 503.608 319.924 503.995 319.924 504.464C319.924 504.949 319.812 505.365 319.588 505.712C319.364 506.059 319.06 506.341 318.676 506.56C318.298 506.773 317.874 506.931 317.404 507.032C316.94 507.139 316.463 507.192 315.972 507.192Z" fill="#FCFCFC"/>
<defs>
<filter id="filter0_d_58_1879" x="0.609047" y="0.688002" width="404.408" height="611.782" filterUnits="userSpaceOnUse" color-interpolation-filters="sRGB">
<feFlood flood-opacity="0" result="BackgroundImageFix"/>
<feColorMatrix in="SourceAlpha" type="matrix" values="0 0 0 0 0 0 0 0 0 0 0 0 0 0 0 0 0 0 127 0" result="hardAlpha"/>
<feOffset dy="5.07891"/>
<feGaussianBlur stdDeviation="31.7432"/>
<feComposite in2="hardAlpha" operator="out"/>
<feColorMatrix type="matrix" values="0 0 0 0 0.350196 0 0 0 0 0 0 0 0 0 0.921569 0 0 0 1 0"/>
<feBlend mode="normal" in2="BackgroundImageFix" result="effect1_dropShadow_58_1879"/>
<feBlend mode="normal" in="SourceGraphic" in2="effect1_dropShadow_58_1879" result="shape"/>
</filter>
<linearGradient id="paint0_linear_58_1879" x1="202.813" y1="61" x2="202.813" y2="542" gradientUnits="userSpaceOnUse">
<stop stop-color="#FFD057"/>
<stop offset="0.151042" stop-color="#9F03FF"/>
<stop offset="0.536458" stop-color="#00DFBA"/>
<stop offset="0.890625" stop-color="#9F03FF"/>
<stop offset="1" stop-color="#FFAC33"/>
</linearGradient>
<linearGradient id="paint1_linear_58_1879" x1="84.9996" y1="484" x2="127.192" y2="503.176" gradientUnits="userSpaceOnUse">
<stop stop-color="#FFAC33"/>
<stop offset="0.28125" stop-color="#9F03FF"/>
<stop offset="0.28125" stop-color="#9F03FF"/>
<stop offset="0.28125" stop-color="#9F03FF"/>
<stop offset="0.739583" stop-color="#9F03FF"/>
<stop offset="0.958333" stop-color="#00DFBA"/>
</linearGradient>
<linearGradient id="paint2_linear_58_1879" x1="125" y1="484" x2="167.192" y2="503.176" gradientUnits="userSpaceOnUse">
<stop stop-color="#FFAC33"/>
<stop offset="0.28125" stop-color="#9F03FF"/>
<stop offset="0.28125" stop-color="#9F03FF"/>
<stop offset="0.28125" stop-color="#9F03FF"/>
<stop offset="0.739583" stop-color="#9F03FF"/>
<stop offset="0.958333" stop-color="#00DFBA"/>
</linearGradient>
<linearGradient id="paint3_linear_58_1879" x1="165" y1="484" x2="207.192" y2="503.176" gradientUnits="userSpaceOnUse">
<stop stop-color="#FFAC33"/>
<stop offset="0.28125" stop-color="#9F03FF"/>
<stop offset="0.28125" stop-color="#9F03FF"/>
<stop offset="0.28125" stop-color="#9F03FF"/>
<stop offset="0.739583" stop-color="#9F03FF"/>
<stop offset="0.958333" stop-color="#00DFBA"/>
</linearGradient>
</defs>
</svg>
