<svg width="274" height="481" viewBox="0 0 274 481" fill="none" xmlns="http://www.w3.org/2000/svg">
<path d="M0 396.808L9.52295 404.399L0 411.3V457.537V460.684C0 471.904 9.09562 481 20.3156 481H252.041C263.962 481 273.626 471.336 273.626 459.415V457.537V411.3L264.103 404.399L273.626 396.808V23.4634V22.2202C273.626 9.94833 263.678 0 251.406 0H22.2202C9.94834 0 0 9.94833 0 22.2202V22.7733V396.808Z" fill="#111032"/>
<path d="M0 396.808L9.52295 404.399L0 411.3V457.537V460.684C0 471.904 9.09562 481 20.3156 481H252.041C263.962 481 273.626 471.336 273.626 459.415V457.537V411.3L264.103 404.399L273.626 396.808V23.4634V22.2202C273.626 9.94833 263.678 0 251.406 0H22.2202C9.94834 0 0 9.94833 0 22.2202V22.7733V396.808Z" fill="black"/>
<path d="M24.1247 404.399H29.8385M33.6476 404.399H39.9963M43.8055 404.399H48.2495H49.5192M64.1211 404.399H69.8349M74.2789 404.399H77.4532H80.6276M15.8715 404.399H20.3155M53.9633 404.399H56.8202H59.6771M83.8019 404.399H86.9762H90.1505M93.3248 404.399H96.4991H99.6735M104.118 404.399H109.831M114.275 404.399H117.45H120.624M123.798 404.399H126.973H130.147M133.321 404.399H136.496H139.67M144.114 404.399H149.828M154.272 404.399H157.446H160.62M163.795 404.399H166.969H170.143M173.318 404.399H176.492H179.666M184.745 404.399H190.459M194.903 404.399H198.077H201.252M204.426 404.399H207.6H210.775M213.949 404.399H217.123H220.298M224.107 404.399H229.821M234.265 404.399H237.439H239.343M243.788 404.399H246.962H248.866M253.31 404.399H256.485H257.755" stroke="#930FFC" stroke-opacity="0.7" stroke-width="1.5"/>
</svg>
