<?xml version="1.0" encoding="UTF-8"?>
<svg xmlns="http://www.w3.org/2000/svg" xmlns:xlink="http://www.w3.org/1999/xlink" width="px" height="px" viewBox="0 0 209 364" version="1.1">
<defs>
<linearGradient id="linear0" gradientUnits="userSpaceOnUse" x1="138.813" y1="2" x2="138.813" y2="483" gradientTransform="matrix(1,0,0,1,0,0)">
<stop offset="0" style="stop-color:rgb(100%,81.568627%,34.117647%);stop-opacity:1;"/>
<stop offset="0.151042" style="stop-color:rgb(62.352941%,1.176471%,100%);stop-opacity:1;"/>
<stop offset="0.536458" style="stop-color:rgb(0%,87.45098%,72.941176%);stop-opacity:1;"/>
<stop offset="0.890625" style="stop-color:rgb(62.352941%,1.176471%,100%);stop-opacity:1;"/>
<stop offset="1" style="stop-color:rgb(100%,67.45098%,20%);stop-opacity:1;"/>
</linearGradient>
</defs>
<g id="surface1">
<path style=" stroke:none;fill-rule:nonzero;fill:rgb(6.666667%,6.27451%,19.607843%);fill-opacity:1;" d="M 1.503906 299.3125 L 8.664062 305.007812 L 1.503906 310.1875 L 1.503906 347.25 C 1.503906 355.671875 8.339844 362.5 16.777344 362.5 L 190.988281 362.5 C 199.949219 362.5 207.214844 355.246094 207.214844 346.300781 L 207.214844 310.1875 L 200.054688 305.007812 L 207.214844 299.3125 L 207.214844 18.175781 C 207.214844 8.96875 199.738281 1.5 190.511719 1.5 L 18.207031 1.5 C 8.984375 1.5 1.503906 8.96875 1.503906 18.175781 Z M 1.503906 299.3125 "/>
<path style="fill-rule:nonzero;fill:rgb(0%,0%,0%);fill-opacity:1;stroke-width:3.80918;stroke-linecap:butt;stroke-linejoin:miter;stroke:url(#linear0);stroke-miterlimit:4;" d="M 2.000411 398.809238 L 11.524447 406.397772 L 2.000411 413.299279 L 2.000411 462.682005 C 2.000411 473.90346 11.093189 483.001374 22.316275 483.001374 L 254.041829 483.001374 C 265.961162 483.001374 275.625486 473.336141 275.625486 461.41725 L 275.625486 413.299279 L 266.10145 406.397772 L 275.625486 398.809238 L 275.625486 24.217731 C 275.625486 11.95012 265.680585 1.998626 253.407932 1.998626 L 24.217965 1.998626 C 11.950508 1.998626 2.000411 11.95012 2.000411 24.217731 Z M 2.000411 398.809238 " transform="matrix(0.751799,0,0,0.750515,0,0)"/>
<path style="fill:none;stroke-width:1.5;stroke-linecap:butt;stroke-linejoin:miter;stroke:rgb(57.647059%,5.882353%,98.823529%);stroke-opacity:0.701961;stroke-miterlimit:4;" d="M 26.12485 406.397772 L 31.840311 406.397772 M 35.648886 406.397772 L 41.998243 406.397772 M 45.806818 406.397772 L 51.517083 406.397772 M 66.122682 406.397772 L 71.832947 406.397772 M 76.280615 406.397772 L 82.629972 406.397772 M 17.873804 406.397772 L 22.316275 406.397772 M 55.96475 406.397772 L 61.675015 406.397772 M 85.799454 406.397772 L 92.148811 406.397772 M 95.32349 406.397772 L 101.672847 406.397772 M 106.120514 406.397772 L 111.830779 406.397772 M 116.273251 406.397772 L 122.622608 406.397772 M 125.797286 406.397772 L 132.146643 406.397772 M 135.321322 406.397772 L 141.670679 406.397772 M 146.11315 406.397772 L 151.828611 406.397772 M 156.271083 406.397772 L 162.62044 406.397772 M 165.795118 406.397772 L 172.144475 406.397772 M 175.319154 406.397772 L 181.668511 406.397772 M 186.744879 406.397772 L 192.460339 406.397772 M 196.902811 406.397772 L 203.252168 406.397772 M 206.426847 406.397772 L 212.776204 406.397772 M 215.950882 406.397772 L 222.300239 406.397772 M 226.108814 406.397772 L 231.819079 406.397772 M 236.266746 406.397772 L 241.343115 406.397772 M 245.785586 406.397772 L 250.86715 406.397772 M 255.309622 406.397772 L 259.757289 406.397772 " transform="matrix(0.751799,0,0,0.750515,0,0)"/>
</g>
</svg>
