<svg width="278" height="485" viewBox="0 0 278 485" fill="none" xmlns="http://www.w3.org/2000/svg">
<path d="M2 398.808L11.523 406.399L2 413.3V459.537V462.684C2 473.904 11.0956 483 22.3156 483V483H254.041V483C265.962 483 275.626 473.336 275.626 461.415V459.537V413.3L266.103 406.399L275.626 398.808V25.4634V24.2202C275.626 11.9483 265.678 2 253.406 2V2H24.2202V2C11.9483 2 2 11.9483 2 24.2202V24.7733V398.808Z" fill="#111032"/>
<path d="M2 398.808L11.523 406.399L2 413.3V459.537V462.684C2 473.904 11.0956 483 22.3156 483V483H254.041V483C265.962 483 275.626 473.336 275.626 461.415V459.537V413.3L266.103 406.399L275.626 398.808V25.4634V24.2202C275.626 11.9483 265.678 2 253.406 2V2H24.2202V2C11.9483 2 2 11.9483 2 24.2202V24.7733V398.808Z" fill="black"/>
<path d="M2 398.808L11.523 406.399L2 413.3V459.537V462.684C2 473.904 11.0956 483 22.3156 483V483H254.041V483C265.962 483 275.626 473.336 275.626 461.415V459.537V413.3L266.103 406.399L275.626 398.808V25.4634V24.2202C275.626 11.9483 265.678 2 253.406 2V2H24.2202V2C11.9483 2 2 11.9483 2 24.2202V24.7733V398.808Z" stroke="url(#paint0_linear_44_995)" stroke-width="3.80918"/>
<path d="M26.1247 406.399H31.8385M35.6476 406.399H41.9963M45.8055 406.399H50.2495H51.5192M66.1211 406.399H71.8349M76.2789 406.399H79.4532H82.6276M17.8715 406.399H22.3155M55.9633 406.399H58.8202H61.6771M85.8019 406.399H88.9762H92.1505M95.3248 406.399H98.4991H101.673M106.118 406.399H111.831M116.275 406.399H119.45H122.624M125.798 406.399H128.973H132.147M135.321 406.399H138.496H141.67M146.114 406.399H151.828M156.272 406.399H159.446H162.62M165.795 406.399H168.969H172.143M175.318 406.399H178.492H181.666M186.745 406.399H192.459M196.903 406.399H200.077H203.252M206.426 406.399H209.6H212.775M215.949 406.399H219.123H222.298M226.107 406.399H231.821M236.265 406.399H239.439H241.343M245.788 406.399H248.962H250.866M255.31 406.399H258.485H259.755" stroke="#930FFC" stroke-opacity="0.7" stroke-width="1.5"/>
<defs>
<linearGradient id="paint0_linear_44_995" x1="138.813" y1="2" x2="138.813" y2="483" gradientUnits="userSpaceOnUse">
<stop stop-color="#FFD057"/>
<stop offset="0.151042" stop-color="#9F03FF"/>
<stop offset="0.536458" stop-color="#00DFBA"/>
<stop offset="0.890625" stop-color="#9F03FF"/>
<stop offset="1" stop-color="#FFAC33"/>
</linearGradient>
</defs>
</svg>
